<svg width="68" height="45" viewBox="0 0 68 45" fill="none" xmlns="http://www.w3.org/2000/svg">
<g clip-path="url(#clip0_104_464)">
<g clip-path="url(#clip1_104_464)">
<path d="M30.3093 17.3005C30.3093 7.25512 24.9402 0.500488 15.7609 0.500488C8.14021 0.500488 2.94433 5.17678 2.94433 12.1047C2.94433 17.9933 7.62062 22.8428 14.2021 22.8428C15.4144 22.8428 16.8 22.6696 18.1856 22.15C16.6268 29.7706 9.69896 34.6201 0 34.1005V43.4531C17.3196 44.8386 30.3093 32.1954 30.3093 17.3005ZM67.2 17.3005C67.2 7.25512 61.8309 0.500488 52.6516 0.500488C45.0309 0.500488 39.8351 5.17678 39.8351 12.1047C39.8351 17.9933 44.5114 22.8428 50.9196 22.8428C52.3051 22.8428 53.6907 22.6696 55.0763 22.15C53.5175 29.7706 46.5897 34.6201 36.8907 34.1005V43.4531C54.2103 44.8386 67.2 32.1954 67.2 17.3005Z" fill="black"/>
</g>
</g>
<defs>
<clipPath id="clip0_104_464">
<rect width="67.2" height="43.59" fill="white" transform="translate(0 0.5)"/>
</clipPath>
<clipPath id="clip1_104_464">
<rect width="67.2" height="43.5892" fill="white" transform="translate(0 0.500488)"/>
</clipPath>
</defs>
</svg>
