<svg width="12" height="15" viewBox="0 0 12 15" fill="none" xmlns="http://www.w3.org/2000/svg">
<g clip-path="url(#clip0_104_146)">
<g clip-path="url(#clip1_104_146)">
<path fill-rule="evenodd" clip-rule="evenodd" d="M5.92205 14.4812C5.49593 14.4812 5.15049 14.1356 5.15049 13.7095L5.15048 2.75357L1.55739 6.34667C1.25607 6.64798 0.767539 6.64798 0.466223 6.34667C0.164905 6.04534 0.164905 5.55682 0.466223 5.2555L5.37646 0.345251C5.67779 0.0439334 6.16632 0.0439332 6.46763 0.345251L11.3779 5.2555C11.6792 5.55682 11.6792 6.04534 11.3779 6.34667C11.0766 6.64798 10.588 6.64798 10.2867 6.34667L6.69362 2.75357L6.69363 13.7095C6.69363 14.1356 6.34818 14.4812 5.92205 14.4812Z" fill="white"/>
</g>
</g>
<defs>
<clipPath id="clip0_104_146">
<rect width="11.76" height="14.37" fill="white" transform="translate(0.239258 0.119263)"/>
</clipPath>
<clipPath id="clip1_104_146">
<rect width="11.7573" height="14.37" fill="white" transform="translate(0.240234 0.119263)"/>
</clipPath>
</defs>
</svg>
