<svg width="12" height="15" viewBox="0 0 12 15" fill="none" xmlns="http://www.w3.org/2000/svg">
<g clip-path="url(#clip0_104_420)">
<g clip-path="url(#clip1_104_420)">
<path fill-rule="evenodd" clip-rule="evenodd" d="M5.92352 14.481C5.4974 14.481 5.15195 14.1355 5.15195 13.7094L5.15194 2.75345L1.55885 6.34655C1.25754 6.64786 0.769004 6.64786 0.467688 6.34655C0.16637 6.04522 0.16637 5.55669 0.467688 5.25538L5.37793 0.345129C5.67926 0.0438113 6.16778 0.0438112 6.4691 0.345129L11.3794 5.25538C11.6807 5.55669 11.6807 6.04522 11.3794 6.34655C11.078 6.64786 10.5895 6.64786 10.2882 6.34655L6.69508 2.75345L6.6951 13.7094C6.6951 14.1355 6.34964 14.481 5.92352 14.481Z" fill="white"/>
</g>
</g>
<defs>
<clipPath id="clip0_104_420">
<rect width="11.76" height="14.37" fill="white" transform="translate(0.240234 0.119141)"/>
</clipPath>
<clipPath id="clip1_104_420">
<rect width="11.7573" height="14.37" fill="white" transform="translate(0.241699 0.119141)"/>
</clipPath>
</defs>
</svg>
