<svg width="12" height="15" viewBox="0 0 12 15" fill="none" xmlns="http://www.w3.org/2000/svg">
<g clip-path="url(#clip0_104_47)">
<g clip-path="url(#clip1_104_47)">
<path fill-rule="evenodd" clip-rule="evenodd" d="M5.92205 14.481C5.49593 14.481 5.15049 14.1355 5.15049 13.7094L5.15048 2.75345L1.55739 6.34655C1.25607 6.64786 0.767539 6.64786 0.466223 6.34655C0.164905 6.04522 0.164905 5.55669 0.466223 5.25538L5.37646 0.345129C5.67779 0.0438113 6.16632 0.0438112 6.46763 0.345129L11.3779 5.25538C11.6792 5.55669 11.6792 6.04522 11.3779 6.34655C11.0766 6.64786 10.588 6.64786 10.2867 6.34655L6.69362 2.75345L6.69363 13.7094C6.69363 14.1355 6.34818 14.481 5.92205 14.481Z" fill="white"/>
</g>
</g>
<defs>
<clipPath id="clip0_104_47">
<rect width="11.76" height="14.37" fill="white" transform="translate(0.239258 0.119141)"/>
</clipPath>
<clipPath id="clip1_104_47">
<rect width="11.7573" height="14.37" fill="white" transform="translate(0.240234 0.119141)"/>
</clipPath>
</defs>
</svg>
