<svg width="13" height="13" viewBox="0 0 13 13" fill="none" xmlns="http://www.w3.org/2000/svg">
<g clip-path="url(#clip0_40_382)">
<path fill-rule="evenodd" clip-rule="evenodd" d="M1.67572 1.86126C1.34768 2.18931 1.34768 2.72116 1.67572 3.04921L10.0757 11.4492C10.4037 11.7772 10.9356 11.7772 11.2637 11.4492C11.5917 11.1212 11.5917 10.5893 11.2637 10.2613L2.86366 1.86126C2.53561 1.53323 2.00376 1.53323 1.67572 1.86126Z" fill="black"/>
<path fill-rule="evenodd" clip-rule="evenodd" d="M1.42969 10.8552C1.42969 11.3192 1.80577 11.6952 2.26969 11.6952H10.6697C11.1336 11.6952 11.5097 11.3192 11.5097 10.8552V2.45523C11.5097 1.99132 11.1336 1.61523 10.6697 1.61523C10.2058 1.61523 9.82969 1.99132 9.82969 2.45523V10.0152H2.26969C1.80577 10.0152 1.42969 10.3913 1.42969 10.8552Z" fill="black"/>
</g>
<defs>
<clipPath id="clip0_40_382">
<rect width="10.08" height="10.08" fill="white" transform="translate(1.42969 1.61523)"/>
</clipPath>
</defs>
</svg>
