<svg width="14" height="15" viewBox="0 0 14 15" fill="none" xmlns="http://www.w3.org/2000/svg">
<g clip-path="url(#clip0_104_35)">
<g clip-path="url(#clip1_104_35)">
<path fill-rule="evenodd" clip-rule="evenodd" d="M7.25542 1.39917C7.56857 1.39917 7.82242 1.65303 7.82242 1.96617V11.9373L10.4629 9.29689C10.6843 9.07547 11.0433 9.07547 11.2647 9.29689C11.4862 9.51832 11.4862 9.87729 11.2647 10.0987L7.65635 13.7071C7.43493 13.9285 7.07596 13.9285 6.85453 13.7071L3.24615 10.0987C3.02472 9.87729 3.02472 9.51832 3.24615 9.29689C3.46757 9.07547 3.82658 9.07547 4.048 9.29689L6.68842 11.9373V1.96617C6.68842 1.65303 6.94231 1.39917 7.25542 1.39917Z" fill="white"/>
</g>
</g>
<defs>
<clipPath id="clip0_104_35">
<rect width="13.44" height="13.44" fill="white" transform="translate(0.560547 0.979248)"/>
</clipPath>
<clipPath id="clip1_104_35">
<rect width="13.44" height="13.44" fill="white" transform="translate(0.560547 0.979248)"/>
</clipPath>
</defs>
</svg>
