<svg width="14" height="15" viewBox="0 0 14 15" fill="none" xmlns="http://www.w3.org/2000/svg">
<g clip-path="url(#clip0_104_408)">
<g clip-path="url(#clip1_104_408)">
<path fill-rule="evenodd" clip-rule="evenodd" d="M7.25542 1.39941C7.56857 1.39941 7.82242 1.65327 7.82242 1.96641V11.9376L10.4629 9.29714C10.6843 9.07571 11.0433 9.07571 11.2647 9.29714C11.4862 9.51856 11.4862 9.87753 11.2647 10.099L7.65635 13.7073C7.43493 13.9288 7.07596 13.9288 6.85453 13.7073L3.24615 10.099C3.02472 9.87753 3.02472 9.51856 3.24615 9.29714C3.46757 9.07571 3.82658 9.07571 4.048 9.29714L6.68842 11.9376V1.96641C6.68842 1.65327 6.94231 1.39941 7.25542 1.39941Z" fill="white"/>
</g>
</g>
<defs>
<clipPath id="clip0_104_408">
<rect width="13.44" height="13.44" fill="white" transform="translate(0.560059 0.979492)"/>
</clipPath>
<clipPath id="clip1_104_408">
<rect width="13.44" height="13.44" fill="white" transform="translate(0.560059 0.979492)"/>
</clipPath>
</defs>
</svg>
