<svg width="590" height="699" viewBox="0 0 590 699" fill="none" xmlns="http://www.w3.org/2000/svg">
<rect width="589.54" height="698.7" fill="black"/>
<path d="M284.176 301.71L231.833 195.377L265.443 314.457L293.261 349.501L297.019 331.485L284.176 301.71Z" fill="#3F3F3F"/>
<path d="M304.826 301.71L357.169 195.377L323.558 314.457L295.74 349.501L291.982 331.485L304.826 301.71Z" fill="#3F3F3F"/>
<path d="M284.176 397.271L231.833 503.623L265.443 384.544L293.261 349.5L297.019 367.516L284.176 397.271Z" fill="#3F3F3F"/>
<path d="M304.826 397.271L357.169 503.623L323.558 384.544L295.74 349.5L291.982 367.516L304.826 397.271Z" fill="#3F3F3F"/>
<path d="M231.967 195.842L293.667 347.524L293.26 349.481L265.442 314.456L231.967 195.842Z" fill="white"/>
<path d="M357.11 195.473L295.352 347.621L294.5 343.553L297.018 331.484L294.5 325.614L304.825 301.709L357.11 195.473Z" fill="white"/>
<path d="M291.962 367.514L294.5 373.345L284.175 397.269L232.839 501.607L293.706 351.667L294.5 355.426L291.962 367.514Z" fill="white"/>
<path d="M357.148 503.567L295.313 351.574V351.555L295.739 349.482L323.557 384.545L357.148 503.567Z" fill="white"/>
<path d="M448.623 286.83L448.565 286.849L342.291 339.173L312.516 352.017L294.5 348.259L329.544 320.421L408.039 298.279L448.623 286.83Z" fill="#3F3F3F"/>
<path d="M342.291 359.827L448.623 412.17L329.544 378.56L294.5 350.741L312.516 346.964L342.291 359.827Z" fill="#3F3F3F"/>
<path d="M246.708 339.173L140.375 286.83L259.455 320.421L294.498 348.239L276.483 352.017L246.708 339.173Z" fill="#3F3F3F"/>
<path d="M246.708 359.827L140.375 412.17L259.455 378.56L294.498 350.741L276.483 346.964L246.708 359.827Z" fill="#3F3F3F"/>
<path d="M448.294 287.008L342.291 339.157L318.367 349.502L312.516 352.02L300.447 349.502L296.554 348.688L448.294 287.008Z" fill="white"/>
<path d="M448.623 412.17L448.313 412.073L448.255 412.054L296.495 350.335L300.427 349.502H300.447L312.515 346.964L318.366 349.502H318.385L342.29 359.827L448.623 412.17Z" fill="white"/>
<path d="M292.466 348.685L288.553 349.498H288.533L276.484 352.017L270.653 349.498H270.633L246.728 339.154L140.357 286.83L140.551 286.888L292.466 348.685Z" fill="white"/>
<path d="M292.504 350.335L140.357 412.17L246.728 359.827L270.633 349.502L276.484 346.964L288.553 349.502L292.504 350.335Z" fill="white"/>
<path d="M418.712 221.182L292.426 333.268L310.732 351.556L422.819 225.289L418.712 221.182Z" fill="#3F3F3F"/>
<path d="M437.912 206.845C436.033 214.458 433.824 219.514 431.984 222.768C430.163 226.003 426.521 227.747 422.86 227.301L416.971 226.585L416.602 220.657C416.37 216.957 418.346 213.431 421.659 211.804C425.01 210.157 430.202 208.259 437.912 206.825V206.845Z" fill="#3F3F3F"/>
<path d="M170.287 477.821L296.572 365.715L278.285 347.428L166.18 473.714L170.287 477.821Z" fill="#3F3F3F"/>
<path d="M151.089 492.155C152.968 484.542 155.177 479.486 157.017 476.231C158.838 472.996 162.48 471.253 166.141 471.698L172.03 472.415L172.399 478.343C172.631 482.043 170.655 485.569 167.342 487.196C163.991 488.842 158.799 490.741 151.089 492.174V492.155Z" fill="#3F3F3F"/>
<path d="M422.819 473.714L310.732 347.428L292.426 365.715L418.712 477.821L422.819 473.714Z" fill="#3F3F3F"/>
<path d="M437.156 492.912C429.542 491.033 424.486 488.824 421.232 486.984C417.977 485.143 416.253 481.521 416.699 477.86L417.415 471.971L423.343 471.602C427.043 471.37 430.569 473.346 432.196 476.659C433.824 479.971 435.741 485.202 437.175 492.912H437.156Z" fill="#3F3F3F"/>
<path d="M166.18 225.289L278.285 351.556L296.572 333.268L170.287 221.182L166.18 225.289Z" fill="#3F3F3F"/>
<path d="M151.845 206.087C159.458 207.966 164.514 210.175 167.768 212.015C171.003 213.836 172.747 217.478 172.301 221.139L171.585 227.029L165.657 227.397C161.957 227.629 158.431 225.653 156.804 222.34C155.157 218.989 153.259 213.797 151.825 206.087H151.845Z" fill="#3F3F3F"/>
<path d="M310.734 347.428L312.555 349.501L310.734 351.574L308.662 349.482L310.734 347.428Z" fill="white"/>
<path d="M421.114 223.584L417.976 226.703L307.4 336.659L301.608 342.451L292.426 333.268L294.499 331.447L416.736 222.945L418.712 221.182L421.114 223.584Z" fill="white"/>
<path d="M437.929 206.825C437.929 206.825 437.929 206.825 437.929 206.864L421.153 223.582L418.015 226.701L417.008 226.585L416.775 222.943L416.62 220.657C416.407 216.976 418.364 213.45 421.696 211.804C425.047 210.157 430.219 208.259 437.949 206.825H437.929Z" fill="white"/>
<path d="M287.411 356.552L281.599 362.345L171.024 472.3L167.886 475.419L166.2 473.714L167.808 471.913L276.446 349.501L278.286 347.428L287.411 356.552Z" fill="white"/>
<path d="M296.571 365.715L294.499 367.536L292.426 365.715L294.499 363.662L296.571 365.715Z" fill="white"/>
<path d="M171.022 472.299L167.884 475.418L151.108 492.097C152.987 484.504 155.176 479.467 157.016 476.232C158.837 472.997 162.46 471.234 166.141 471.699L167.807 471.892L171.022 472.28V472.299Z" fill="white"/>
<path d="M296.571 365.715L294.499 367.536L292.426 365.715L294.499 363.662L296.571 365.715Z" fill="white"/>
<path d="M422.82 473.714L420.418 476.116L417.299 472.997L307.343 362.403L301.551 356.591L308.661 349.482L310.734 347.428L312.555 349.501L421.057 471.738L422.82 473.714Z" fill="white"/>
<path d="M437.155 492.913H437.097L420.418 476.137L417.299 472.999L417.434 471.972L421.057 471.739L423.343 471.584C427.024 471.352 430.549 473.328 432.196 476.66C433.843 480.011 435.741 485.184 437.174 492.894L437.155 492.913Z" fill="white"/>
<path d="M278.286 347.428L280.339 349.482L278.286 351.574L276.445 349.501L278.286 347.428Z" fill="white"/>
<path d="M296.573 333.268L294.5 335.341L287.449 342.412L281.656 336.6L171.701 226.025L168.582 222.887L170.287 221.182L172.088 222.79L294.5 331.447L296.573 333.268Z" fill="white"/>
<path d="M172.281 221.143L172.087 222.789L171.699 226.024L168.58 222.886L151.882 206.11C159.476 207.97 164.512 210.178 167.767 212.018C171.002 213.839 172.765 217.462 172.3 221.143H172.281Z" fill="white"/>
<path d="M476.597 340.996L474.989 346.614L307.382 336.637L297.406 169.031L303.024 167.423C295.72 164.478 294.5 149 294.5 149C294.5 149 293.28 164.459 285.996 167.384L291.614 168.992L281.637 336.598L114.031 346.575L112.423 340.957C109.478 348.28 94 349.5 94 349.5C94 349.5 109.459 350.72 112.384 358.004L113.992 352.386L281.598 362.363L291.575 529.969L285.957 531.577C293.241 534.502 294.461 549.961 294.461 549.961C294.461 549.961 295.682 534.502 302.966 531.577L297.348 529.969L307.324 362.363L474.931 352.386L476.539 358.004C479.464 350.72 494.923 349.5 494.923 349.5C494.923 349.5 479.464 348.28 476.539 340.996H476.597Z" fill="#3F3F3F"/>
<path d="M495 349.481C495 349.481 494.942 349.481 494.826 349.481H294.5V549.961C294.5 549.961 293.28 534.502 285.996 531.558L291.594 529.95L281.618 362.344L294.481 349.481H94.1743C94.0581 349.481 94 349.481 94 349.481C94 349.481 109.459 348.28 112.403 340.976L114.011 346.594L281.618 336.618L291.594 169.011L285.996 167.403C293.28 164.478 294.5 149 294.5 149V349.481L307.363 336.618L474.969 346.594L476.577 340.976C479.502 348.28 494.981 349.481 494.981 349.481H495Z" fill="white"/>
</svg>
