<svg width="42" height="42" viewBox="0 0 42 42" fill="none" xmlns="http://www.w3.org/2000/svg">
<path d="M19.9188 15.9945L14.4365 4.85742L17.9568 17.3296L20.8704 21L21.2641 19.1131L19.9188 15.9945Z" fill="#DFDFDF"/>
<path d="M22.0815 15.9945L27.5639 4.85742L24.0436 17.3296L21.13 21L20.7363 19.1131L22.0815 15.9945Z" fill="#DFDFDF"/>
<path d="M19.9188 26.0035L14.4365 37.1426L17.9568 24.6704L20.8704 21L21.2641 22.887L19.9188 26.0035Z" fill="#DFDFDF"/>
<path d="M22.0815 26.0035L27.5639 37.1426L24.0436 24.6704L21.13 21L20.7363 22.887L22.0815 26.0035Z" fill="#DFDFDF"/>
<path d="M14.4507 4.90625L20.913 20.7932L20.8704 20.9981L17.9568 17.3297L14.4507 4.90625Z" fill="white"/>
<path d="M27.5577 4.86768L21.0893 20.8033L21 20.3772L21.2638 19.1132L21 18.4984L22.0814 15.9946L27.5577 4.86768Z" fill="white"/>
<path d="M20.734 22.8868L20.9998 23.4975L19.9183 26.0033L14.5415 36.9314L20.9166 21.2271L20.9998 21.6207L20.734 22.8868Z" fill="white"/>
<path d="M27.5615 37.1366L21.085 21.2172V21.2151L21.1296 20.998L24.0432 24.6705L27.5615 37.1366Z" fill="white"/>
<path d="M37.1426 14.436L37.1365 14.4381L26.0055 19.9184L22.887 21.2636L21 20.8699L24.6704 17.9543L32.8919 15.6352L37.1426 14.436Z" fill="#DFDFDF"/>
<path d="M26.0055 22.0816L37.1426 27.5639L24.6704 24.0436L21 21.13L22.887 20.7344L26.0055 22.0816Z" fill="#DFDFDF"/>
<path d="M15.9945 19.9184L4.85742 14.436L17.3296 17.9543L21 20.8679L19.1131 21.2636L15.9945 19.9184Z" fill="#DFDFDF"/>
<path d="M15.9945 22.0816L4.85742 27.5639L17.3296 24.0436L21 21.13L19.1131 20.7344L15.9945 22.0816Z" fill="#DFDFDF"/>
<path d="M37.1079 14.4546L26.0053 19.9166L23.4995 21.0001L22.8867 21.2639L21.6227 21.0001L21.2148 20.9149L37.1079 14.4546Z" fill="white"/>
<path d="M37.1426 27.5639L37.1101 27.5538L37.1041 27.5518L21.209 21.0874L21.6209 21.0002H21.6229L22.887 20.7344L23.4997 21.0002H23.5017L26.0055 22.0816L37.1426 27.5639Z" fill="white"/>
<path d="M20.7871 20.9146L20.3772 20.9998H20.3752L19.1131 21.2636L18.5024 20.9998H18.5004L15.9966 19.9163L4.85547 14.436L4.87576 14.4421L20.7871 20.9146Z" fill="white"/>
<path d="M20.7911 21.0874L4.85547 27.5639L15.9966 22.0816L18.5004 21.0002L19.1131 20.7344L20.3772 21.0002L20.7911 21.0874Z" fill="white"/>
<path d="M34.0097 7.56006L20.7827 19.2998L22.7001 21.2151L34.4398 7.9902L34.0097 7.56006Z" fill="#DFDFDF"/>
<path d="M36.0204 6.05867C35.8236 6.85606 35.5923 7.38563 35.3996 7.7265C35.2088 8.06534 34.8274 8.24794 34.4439 8.20128L33.8271 8.12621L33.7886 7.50534C33.7642 7.1178 33.9712 6.74852 34.3181 6.57809C34.6691 6.40563 35.2129 6.20679 36.0204 6.05664V6.05867Z" fill="#DFDFDF"/>
<path d="M7.9902 34.4398L21.2172 22.6981L19.3018 20.7827L7.56006 34.0097L7.9902 34.4398Z" fill="#DFDFDF"/>
<path d="M5.97949 35.9413C6.1763 35.1439 6.40761 34.6144 6.60036 34.2735C6.79109 33.9346 7.17254 33.752 7.55601 33.7987L8.17283 33.8738L8.21138 34.4946C8.23572 34.8822 8.02877 35.2515 7.68181 35.4219C7.3308 35.5944 6.78703 35.7932 5.97949 35.9433V35.9413Z" fill="#DFDFDF"/>
<path d="M34.4398 34.0097L22.7001 20.7827L20.7827 22.6981L34.0097 34.4398L34.4398 34.0097Z" fill="#DFDFDF"/>
<path d="M35.9414 36.0204C35.144 35.8236 34.6144 35.5923 34.2735 35.3996C33.9327 35.2068 33.7521 34.8274 33.7988 34.4439L33.8738 33.8271L34.4947 33.7886C34.8822 33.7642 35.2515 33.9712 35.422 34.3181C35.5924 34.6651 35.7933 35.2129 35.9434 36.0204H35.9414Z" fill="#DFDFDF"/>
<path d="M7.56006 7.9902L19.3018 21.2151L21.2172 19.2998L7.9902 7.56006L7.56006 7.9902Z" fill="#DFDFDF"/>
<path d="M6.05867 5.97949C6.85606 6.1763 7.38563 6.40761 7.7265 6.60036C8.06534 6.79109 8.24794 7.17254 8.20128 7.55601L8.12621 8.17283L7.50534 8.21138C7.1178 8.23572 6.74852 8.02877 6.57809 7.68181C6.40563 7.3308 6.20679 6.78703 6.05664 5.97949H6.05867Z" fill="#DFDFDF"/>
<path d="M22.7005 20.7827L22.8912 20.9998L22.7005 21.2169L22.4834 20.9978L22.7005 20.7827Z" fill="white"/>
<path d="M34.2613 7.81165L33.9326 8.13832L22.3511 19.6548L21.7445 20.2615L20.7827 19.2998L20.9998 19.109L33.8027 7.7447L34.0097 7.56006L34.2613 7.81165Z" fill="white"/>
<path d="M36.0226 6.05664C36.0226 6.05664 36.0226 6.05664 36.0226 6.0607L34.2655 7.81171L33.9368 8.13838L33.8313 8.12621L33.8069 7.74476L33.7907 7.50534C33.7684 7.11983 33.9733 6.75055 34.3223 6.57809C34.6733 6.40563 35.2151 6.20679 36.0246 6.05664H36.0226Z" fill="white"/>
<path d="M20.2574 21.7384L19.6487 22.345L8.06723 33.8616L7.73853 34.1882L7.56201 34.0097L7.73042 33.821L19.109 20.9998L19.3017 20.7827L20.2574 21.7384Z" fill="white"/>
<path d="M21.2169 22.6985L20.9998 22.8892L20.7827 22.6985L20.9998 22.4834L21.2169 22.6985Z" fill="white"/>
<path d="M8.06724 33.8616L7.73855 34.1883L5.98145 35.9353C6.17826 35.1399 6.40753 34.6124 6.60029 34.2735C6.79101 33.9347 7.17043 33.75 7.55594 33.7987L7.73043 33.819L8.06724 33.8596V33.8616Z" fill="white"/>
<path d="M21.2169 22.6985L20.9998 22.8892L20.7827 22.6985L20.9998 22.4834L21.2169 22.6985Z" fill="white"/>
<path d="M34.4402 34.0097L34.1886 34.2613L33.862 33.9346L22.3454 22.3511L21.7388 21.7424L22.4834 20.9978L22.7005 20.7827L22.8912 20.9998L34.2556 33.8027L34.4402 34.0097Z" fill="white"/>
<path d="M35.9415 36.0205H35.9354L34.1885 34.2634L33.8618 33.9347L33.876 33.8272L34.2554 33.8028L34.4949 33.7866C34.8804 33.7623 35.2496 33.9692 35.4221 34.3182C35.5946 34.6692 35.7934 35.211 35.9436 36.0185L35.9415 36.0205Z" fill="white"/>
<path d="M19.3016 20.7827L19.5167 20.9978L19.3016 21.2169L19.1089 20.9998L19.3016 20.7827Z" fill="white"/>
<path d="M21.217 19.2998L20.9999 19.5169L20.2614 20.2574L19.6547 19.6488L8.13819 8.0673L7.81152 7.73861L7.99007 7.56006L8.17877 7.72846L20.9999 19.109L21.217 19.2998Z" fill="white"/>
<path d="M8.19902 7.55594L8.17873 7.7284L8.13815 8.06724L7.81149 7.73855L6.0625 5.98145C6.85786 6.17623 7.3854 6.40753 7.72627 6.60029C8.06511 6.79101 8.24975 7.17043 8.20105 7.55594H8.19902Z" fill="white"/>
<path d="M40.0725 20.1093L39.9041 20.6977L22.3493 19.6528L21.3043 2.09797L21.8928 1.92957C21.1278 1.62116 21 0 21 0C21 0 20.8722 1.61913 20.1093 1.92551L20.6977 2.09391L19.6528 19.6487L2.09797 20.6936L1.92957 20.1052C1.62116 20.8722 0 21 0 21C0 21 1.61913 21.1278 1.92551 21.8907L2.09391 21.3023L19.6487 22.3472L20.6936 39.902L20.1052 40.0704C20.8681 40.3768 20.9959 41.9959 20.9959 41.9959C20.9959 41.9959 21.1238 40.3768 21.8867 40.0704L21.2983 39.902L22.3432 22.3472L39.898 21.3023L40.0664 21.8907C40.3728 21.1278 41.9919 21 41.9919 21C41.9919 21 40.3728 20.8722 40.0664 20.1093H40.0725Z" fill="#DFDFDF"/>
<path d="M42 20.998C42 20.998 41.9939 20.998 41.9817 20.998H21V41.9959C21 41.9959 20.8722 40.3768 20.1093 40.0684L20.6957 39.9L19.6507 22.3452L20.998 20.998H0.0182609C0.00608696 20.998 0 20.998 0 20.998C0 20.998 1.61913 20.8722 1.92754 20.1072L2.09594 20.6957L19.6507 19.6507L20.6957 2.09594L20.1093 1.92754C20.8722 1.62116 21 0 21 0V20.998L22.3472 19.6507L39.902 20.6957L40.0704 20.1072C40.3768 20.8722 41.998 20.998 41.998 20.998H42Z" fill="white"/>
</svg>
