<svg width="43" height="43" viewBox="0 0 43 43" fill="none" xmlns="http://www.w3.org/2000/svg">
<path d="M20.3926 16.3753L14.7798 4.97305L18.3839 17.7422L21.3669 21.5L21.7699 19.5681L20.3926 16.3753Z" fill="#3F3F3F"/>
<path d="M22.6072 16.3753L28.2201 4.97305L24.616 17.7422L21.633 21.5L21.23 19.5681L22.6072 16.3753Z" fill="#3F3F3F"/>
<path d="M20.3926 26.6226L14.7798 38.027L18.3839 25.2578L21.3669 21.5L21.7699 23.4319L20.3926 26.6226Z" fill="#3F3F3F"/>
<path d="M22.6072 26.6226L28.2201 38.027L24.616 25.2578L21.633 21.5L21.23 23.4319L22.6072 26.6226Z" fill="#3F3F3F"/>
<path d="M14.7944 5.0229L21.4106 21.2881L21.367 21.4979L18.384 17.7422L14.7944 5.0229Z" fill="white"/>
<path d="M28.2138 4.98342L21.5914 21.2985L21.5 20.8623L21.77 19.5681L21.5 18.9387L22.6072 16.3753L28.2138 4.98342Z" fill="white"/>
<path d="M21.2281 23.4319L21.5002 24.0571L20.393 26.6226L14.8882 37.8109L21.415 21.7327L21.5002 22.1356L21.2281 23.4319Z" fill="white"/>
<path d="M28.2181 38.0207L21.5874 21.7223V21.7202L21.6331 21.4979L24.6161 25.2578L28.2181 38.0207Z" fill="white"/>
<path d="M38.027 14.78L38.0207 14.782L26.6247 20.3928L23.4319 21.7701L21.5 21.3671L25.2578 18.382L33.675 16.0076L38.027 14.78Z" fill="#3F3F3F"/>
<path d="M26.6247 22.6072L38.027 28.22L25.2578 24.6159L21.5 21.6329L23.4319 21.2279L26.6247 22.6072Z" fill="#3F3F3F"/>
<path d="M16.3754 20.3928L4.97314 14.78L17.7423 18.382L21.5001 21.365L19.5682 21.7701L16.3754 20.3928Z" fill="#3F3F3F"/>
<path d="M16.3754 22.6072L4.97314 28.22L17.7423 24.6159L21.5001 21.6329L19.5682 21.2279L16.3754 22.6072Z" fill="#3F3F3F"/>
<path d="M37.9917 14.7986L26.6247 20.3907L24.0592 21.5L23.4319 21.77L22.1378 21.5L21.7202 21.4128L37.9917 14.7986Z" fill="white"/>
<path d="M38.0269 28.22L37.9936 28.2097L37.9874 28.2076L21.7139 21.5893L22.1356 21.5H22.1376L23.4318 21.2279L24.0591 21.5H24.0612L26.6246 22.6072L38.0269 28.22Z" fill="white"/>
<path d="M21.2821 21.4128L20.8625 21.5H20.8604L19.5683 21.7701L18.9431 21.5H18.941L16.3776 20.3907L4.97119 14.78L4.99196 14.7862L21.2821 21.4128Z" fill="white"/>
<path d="M21.2863 21.5893L4.97119 28.22L16.3776 22.6072L18.941 21.5L19.5683 21.2279L20.8625 21.5L21.2863 21.5893Z" fill="white"/>
<path d="M34.8197 7.74L21.2778 19.7592L23.2409 21.7202L35.2601 8.18038L34.8197 7.74Z" fill="#3F3F3F"/>
<path d="M36.8783 6.2028C36.6768 7.01918 36.44 7.56135 36.2427 7.91034C36.0474 8.25724 35.6569 8.4442 35.2643 8.39642L34.6328 8.31956L34.5933 7.68391C34.5684 7.28715 34.7802 6.90908 35.1355 6.73459C35.4948 6.55802 36.0516 6.35444 36.8783 6.20072V6.2028Z" fill="#3F3F3F"/>
<path d="M8.18013 35.26L21.722 23.2387L19.761 21.2777L7.73975 34.8196L8.18013 35.26Z" fill="#3F3F3F"/>
<path d="M6.12158 36.7972C6.32308 35.9808 6.55989 35.4386 6.75723 35.0897C6.9525 34.7427 7.34303 34.5558 7.73564 34.6036L8.36714 34.6804L8.40661 35.3161C8.43153 35.7128 8.21965 36.0909 7.86443 36.2654C7.50506 36.442 6.94835 36.6455 6.12158 36.7993V36.7972Z" fill="#3F3F3F"/>
<path d="M35.2601 34.8196L23.2409 21.2777L21.2778 23.2387L34.8197 35.26L35.2601 34.8196Z" fill="#3F3F3F"/>
<path d="M36.7972 36.8782C35.9809 36.6767 35.4387 36.4399 35.0897 36.2426C34.7407 36.0452 34.5558 35.6568 34.6036 35.2641L34.6805 34.6327L35.3161 34.5932C35.7129 34.5683 36.091 34.7801 36.2655 35.1354C36.44 35.4906 36.6456 36.0514 36.7993 36.8782H36.7972Z" fill="#3F3F3F"/>
<path d="M7.73975 8.18038L19.761 21.7202L21.722 19.7592L8.18013 7.74L7.73975 8.18038Z" fill="#3F3F3F"/>
<path d="M6.20276 6.12178C7.01914 6.32328 7.56131 6.56009 7.9103 6.75743C8.25721 6.9527 8.44416 7.34323 8.39638 7.73584L8.31952 8.36734L7.68387 8.4068C7.28711 8.43173 6.90904 8.21985 6.73455 7.86463C6.55798 7.50526 6.3544 6.94854 6.20068 6.12178H6.20276Z" fill="#3F3F3F"/>
<path d="M23.2408 21.2777L23.4361 21.5L23.2408 21.7223L23.0186 21.4979L23.2408 21.2777Z" fill="white"/>
<path d="M35.0773 7.99758L34.7408 8.33203L22.8836 20.1228L22.2625 20.7439L21.2778 19.7592L21.5001 19.564L34.6078 7.92903L34.8197 7.74L35.0773 7.99758Z" fill="white"/>
<path d="M36.8805 6.20072C36.8805 6.20072 36.8805 6.20072 36.8805 6.20488L35.0815 7.99758L34.745 8.33203L34.637 8.31956L34.6121 7.92903L34.5954 7.68391C34.5726 7.28922 34.7824 6.91116 35.1397 6.73459C35.4991 6.55802 36.0537 6.35444 36.8825 6.20072H36.8805Z" fill="white"/>
<path d="M20.7398 22.2561L20.1166 22.8772L8.25943 34.668L7.92291 35.0024L7.74219 34.8196L7.9146 34.6264L19.5641 21.5L19.7614 21.2777L20.7398 22.2561Z" fill="white"/>
<path d="M21.7224 23.2387L21.5001 23.434L21.2778 23.2387L21.5001 23.0185L21.7224 23.2387Z" fill="white"/>
<path d="M8.25948 34.668L7.92296 35.0024L6.12402 36.791C6.32552 35.9767 6.56026 35.4366 6.7576 35.0896C6.95286 34.7427 7.34132 34.5537 7.736 34.6036L7.91465 34.6243L8.25948 34.6659V34.668Z" fill="white"/>
<path d="M21.7224 23.2387L21.5001 23.434L21.2778 23.2387L21.5001 23.0185L21.7224 23.2387Z" fill="white"/>
<path d="M35.2602 34.8196L35.0026 35.0772L34.6682 34.7427L22.8775 22.8835L22.2563 22.2603L23.0187 21.4979L23.241 21.2777L23.4363 21.5L35.0712 34.6077L35.2602 34.8196Z" fill="white"/>
<path d="M36.7972 36.8782H36.791L35.0024 35.0793L34.668 34.7427L34.6825 34.6327L35.071 34.6077L35.3161 34.5911C35.7108 34.5662 36.0888 34.7781 36.2654 35.1354C36.442 35.4947 36.6456 36.0494 36.7993 36.8761L36.7972 36.8782Z" fill="white"/>
<path d="M19.7613 21.2777L19.9815 21.4979L19.7613 21.7223L19.564 21.5L19.7613 21.2777Z" fill="white"/>
<path d="M21.7222 19.7592L21.5 19.9815L20.7438 20.7397L20.1227 20.1165L8.332 8.25933L7.99756 7.92281L8.18036 7.74001L8.37355 7.91242L21.5 19.564L21.7222 19.7592Z" fill="white"/>
<path d="M8.39442 7.73584L8.37365 7.91241L8.3321 8.25932L7.99766 7.9228L6.20703 6.12386C7.02133 6.32328 7.56143 6.56009 7.91041 6.75744C8.25732 6.9527 8.44635 7.34116 8.3965 7.73584H8.39442Z" fill="white"/>
<path d="M41.0266 20.5881L40.8542 21.1905L22.8814 20.1207L21.8116 2.14792L22.414 1.97551C21.6309 1.65976 21.5 0 21.5 0C21.5 0 21.3691 1.65768 20.5881 1.97135L21.1905 2.14377L20.1207 20.1165L2.14792 21.1863L1.97551 20.5839C1.65976 21.3691 0 21.5 0 21.5C0 21.5 1.65768 21.6309 1.97135 22.4119L2.14377 21.8095L20.1165 22.8793L21.1863 40.8521L20.5839 41.0245C21.365 41.3382 21.4958 42.9958 21.4958 42.9958C21.4958 42.9958 21.6267 41.3382 22.4078 41.0245L21.8054 40.8521L22.8752 22.8793L40.8479 21.8095L41.0203 22.4119C41.334 21.6309 42.9917 21.5 42.9917 21.5C42.9917 21.5 41.334 21.3691 41.0203 20.5881H41.0266Z" fill="#3F3F3F"/>
<path d="M43 21.4979C43 21.4979 42.9938 21.4979 42.9813 21.4979H21.5V42.9958C21.5 42.9958 21.3691 41.3382 20.5881 41.0224L21.1884 40.85L20.1186 22.8772L21.4979 21.4979H0.0186957C0.00623189 21.4979 0 21.4979 0 21.4979C0 21.4979 1.65768 21.3691 1.97343 20.586L2.14585 21.1884L20.1186 20.1186L21.1884 2.14585L20.5881 1.97343C21.3691 1.65976 21.5 0 21.5 0V21.4979L22.8793 20.1186L40.8521 21.1884L41.0245 20.586C41.3382 21.3691 42.9979 21.4979 42.9979 21.4979H43Z" fill="white"/>
</svg>
