<svg width="42" height="42" viewBox="0 0 42 42" fill="none" xmlns="http://www.w3.org/2000/svg">
<path d="M19.9188 15.9945L14.4365 4.85742L17.9568 17.3296L20.8704 21L21.2641 19.1131L19.9188 15.9945Z" fill="#DFDFDF"/>
<path d="M22.0815 15.9945L27.5639 4.85742L24.0436 17.3296L21.13 21L20.7363 19.1131L22.0815 15.9945Z" fill="#DFDFDF"/>
<path d="M19.9188 26.0035L14.4365 37.1426L17.9568 24.6704L20.8704 21L21.2641 22.887L19.9188 26.0035Z" fill="#DFDFDF"/>
<path d="M22.0815 26.0035L27.5639 37.1426L24.0436 24.6704L21.13 21L20.7363 22.887L22.0815 26.0035Z" fill="#DFDFDF"/>
<path d="M14.4502 4.90613L20.9125 20.7931L20.8699 20.998L17.9563 17.3296L14.4502 4.90613Z" fill="white"/>
<path d="M27.5577 4.86755L21.0893 20.8032L21 20.3771L21.2638 19.1131L21 18.4983L22.0814 15.9945L27.5577 4.86755Z" fill="white"/>
<path d="M20.7345 22.887L21.0003 23.4977L19.9188 26.0035L14.542 36.9316L20.9171 21.2273L21.0003 21.6209L20.7345 22.887Z" fill="white"/>
<path d="M27.5615 37.1365L21.085 21.2171V21.215L21.1296 20.9979L24.0432 24.6704L27.5615 37.1365Z" fill="white"/>
<path d="M37.1426 14.4363L37.1365 14.4383L26.0055 19.9186L22.887 21.2638L21 20.8702L24.6704 17.9545L32.8919 15.6354L37.1426 14.4363Z" fill="#DFDFDF"/>
<path d="M26.0055 22.0815L37.1426 27.5638L24.6704 24.0435L21 21.1299L22.887 20.7343L26.0055 22.0815Z" fill="#DFDFDF"/>
<path d="M15.9945 19.9186L4.85742 14.4363L17.3296 17.9545L21 20.8682L19.1131 21.2638L15.9945 19.9186Z" fill="#DFDFDF"/>
<path d="M15.9945 22.0815L4.85742 27.5638L17.3296 24.0435L21 21.1299L19.1131 20.7343L15.9945 22.0815Z" fill="#DFDFDF"/>
<path d="M37.1079 14.4545L26.0053 19.9165L23.4995 21L22.8867 21.2637L21.6227 21L21.2148 20.9148L37.1079 14.4545Z" fill="white"/>
<path d="M37.1426 27.5638L37.1101 27.5537L37.1041 27.5516L21.209 21.0873L21.6209 21H21.6229L22.887 20.7343L23.4997 21H23.5017L26.0055 22.0815L37.1426 27.5638Z" fill="white"/>
<path d="M20.7871 20.9148L20.3772 21H20.3752L19.1131 21.2638L18.5024 21H18.5004L15.9966 19.9166L4.85547 14.4363L4.87576 14.4424L20.7871 20.9148Z" fill="white"/>
<path d="M20.7911 21.0873L4.85547 27.5638L15.9966 22.0815L18.5004 21L19.1131 20.7343L20.3772 21L20.7911 21.0873Z" fill="white"/>
<path d="M34.0102 7.55994L20.7832 19.2996L22.7006 21.215L34.4403 7.99008L34.0102 7.55994Z" fill="#DFDFDF"/>
<path d="M36.0209 6.05855C35.8241 6.85594 35.5928 7.3855 35.4001 7.72637C35.2093 8.06521 34.8279 8.24782 34.4444 8.20116L33.8276 8.12608L33.789 7.50521C33.7647 7.11768 33.9717 6.7484 34.3186 6.57797C34.6696 6.4055 35.2134 6.20666 36.0209 6.05652V6.05855Z" fill="#DFDFDF"/>
<path d="M7.98972 34.4399L21.2167 22.6982L19.3013 20.7828L7.55957 34.0098L7.98972 34.4399Z" fill="#DFDFDF"/>
<path d="M5.97949 35.9414C6.1763 35.144 6.40761 34.6145 6.60036 34.2736C6.79109 33.9348 7.17254 33.7522 7.55601 33.7988L8.17283 33.8739L8.21138 34.4948C8.23572 34.8823 8.02877 35.2516 7.68181 35.422C7.3308 35.5945 6.78703 35.7933 5.97949 35.9435V35.9414Z" fill="#DFDFDF"/>
<path d="M34.4403 34.0098L22.7006 20.7828L20.7832 22.6982L34.0102 34.4399L34.4403 34.0098Z" fill="#DFDFDF"/>
<path d="M35.9419 36.0206C35.1445 35.8238 34.6149 35.5924 34.274 35.3997C33.9332 35.2069 33.7526 34.8275 33.7993 34.444L33.8743 33.8272L34.4952 33.7887C34.8827 33.7643 35.252 33.9713 35.4224 34.3182C35.5929 34.6652 35.7937 35.213 35.9439 36.0206H35.9419Z" fill="#DFDFDF"/>
<path d="M7.55957 7.99008L19.3013 21.215L21.2167 19.2996L7.98972 7.55994L7.55957 7.99008Z" fill="#DFDFDF"/>
<path d="M6.05867 5.97937C6.85606 6.17618 7.38563 6.40749 7.7265 6.60024C8.06534 6.79096 8.24794 7.17241 8.20128 7.55589L8.12621 8.1727L7.50534 8.21125C7.1178 8.2356 6.74852 8.02865 6.57809 7.68169C6.40563 7.33067 6.20679 6.78691 6.05664 5.97937H6.05867Z" fill="#DFDFDF"/>
<path d="M22.7005 20.7828L22.8912 20.9999L22.7005 21.217L22.4834 20.9979L22.7005 20.7828Z" fill="white"/>
<path d="M34.2618 7.81153L33.9331 8.1382L22.3516 19.6547L21.7449 20.2614L20.7832 19.2996L21.0003 19.1089L33.8032 7.74457L34.0102 7.55994L34.2618 7.81153Z" fill="white"/>
<path d="M36.0226 6.05652C36.0226 6.05652 36.0226 6.05652 36.0226 6.06058L34.2655 7.81159L33.9368 8.13826L33.8313 8.12608L33.8069 7.74463L33.7907 7.50521C33.7684 7.11971 33.9733 6.75043 34.3223 6.57797C34.6733 6.4055 35.2151 6.20666 36.0246 6.05652H36.0226Z" fill="white"/>
<path d="M20.2579 21.7385L19.6492 22.3452L8.06772 33.8617L7.73902 34.1883L7.5625 34.0098L7.73091 33.8211L19.1095 20.9999L19.3022 20.7828L20.2579 21.7385Z" fill="white"/>
<path d="M21.2174 22.6982L21.0003 22.889L20.7832 22.6982L21.0003 22.4832L21.2174 22.6982Z" fill="white"/>
<path d="M8.06724 33.8618L7.73855 34.1884L5.98145 35.9354C6.17826 35.14 6.40753 34.6125 6.60029 34.2736C6.79101 33.9348 7.17043 33.7502 7.55594 33.7989L7.73043 33.8191L8.06724 33.8597V33.8618Z" fill="white"/>
<path d="M21.2174 22.6982L21.0003 22.889L20.7832 22.6982L21.0003 22.4832L21.2174 22.6982Z" fill="white"/>
<path d="M34.4397 34.0098L34.1881 34.2614L33.8615 33.9347L22.3449 22.3512L21.7383 21.7425L22.4829 20.9979L22.7 20.7828L22.8907 20.9999L34.2551 33.8028L34.4397 34.0098Z" fill="white"/>
<path d="M35.942 36.0205H35.9359L34.189 34.2634L33.8623 33.9347L33.8765 33.8272L34.2559 33.8028L34.4953 33.7866C34.8809 33.7623 35.2501 33.9692 35.4226 34.3182C35.5951 34.6692 35.7939 35.211 35.944 36.0185L35.942 36.0205Z" fill="white"/>
<path d="M19.3021 20.7828L19.5172 20.9979L19.3021 21.217L19.1094 20.9999L19.3021 20.7828Z" fill="white"/>
<path d="M21.217 19.2998L20.9999 19.5169L20.2614 20.2574L19.6547 19.6488L8.13819 8.0673L7.81152 7.73861L7.99007 7.56006L8.17877 7.72846L20.9999 19.109L21.217 19.2998Z" fill="white"/>
<path d="M8.19902 7.55594L8.17873 7.7284L8.13815 8.06724L7.81149 7.73855L6.0625 5.98145C6.85786 6.17623 7.3854 6.40753 7.72627 6.60029C8.06511 6.79101 8.24975 7.17043 8.20105 7.55594H8.19902Z" fill="white"/>
<path d="M40.0725 20.1093L39.9041 20.6977L22.3493 19.6528L21.3043 2.09797L21.8928 1.92957C21.1278 1.62116 21 0 21 0C21 0 20.8722 1.61913 20.1093 1.92551L20.6977 2.09391L19.6528 19.6487L2.09797 20.6936L1.92957 20.1052C1.62116 20.8722 0 21 0 21C0 21 1.61913 21.1278 1.92551 21.8907L2.09391 21.3023L19.6487 22.3472L20.6936 39.902L20.1052 40.0704C20.8681 40.3768 20.9959 41.9959 20.9959 41.9959C20.9959 41.9959 21.1238 40.3768 21.8867 40.0704L21.2983 39.902L22.3432 22.3472L39.898 21.3023L40.0664 21.8907C40.3728 21.1278 41.9919 21 41.9919 21C41.9919 21 40.3728 20.8722 40.0664 20.1093H40.0725Z" fill="#DFDFDF"/>
<path d="M42 20.998C42 20.998 41.9939 20.998 41.9817 20.998H21V41.9959C21 41.9959 20.8722 40.3768 20.1093 40.0684L20.6957 39.9L19.6507 22.3452L20.998 20.998H0.0182609C0.00608696 20.998 0 20.998 0 20.998C0 20.998 1.61913 20.8722 1.92754 20.1072L2.09594 20.6957L19.6507 19.6507L20.6957 2.09594L20.1093 1.92754C20.8722 1.62116 21 0 21 0V20.998L22.3472 19.6507L39.902 20.6957L40.0704 20.1072C40.3768 20.8722 41.998 20.998 41.998 20.998H42Z" fill="white"/>
</svg>
