<svg width="72" height="76" viewBox="0 0 72 76" fill="none" xmlns="http://www.w3.org/2000/svg">
<path d="M34.2313 31.8835L25.0166 13.1643L30.9335 34.1275L35.8307 40.2967L36.4923 37.1251L34.2313 31.8835Z" fill="#3F3F3F"/>
<path d="M37.8655 31.8835L47.0802 13.1643L41.1633 34.1275L36.2661 40.2967L35.6045 37.1251L37.8655 31.8835Z" fill="#3F3F3F"/>
<path d="M34.2313 48.7066L25.0166 67.4292L30.9335 46.466L35.8307 40.2968L36.4923 43.4683L34.2313 48.7066Z" fill="#3F3F3F"/>
<path d="M37.8655 48.7066L47.0802 67.4292L41.1633 46.466L36.2661 40.2968L35.6045 43.4683L37.8655 48.7066Z" fill="#3F3F3F"/>
<path d="M25.041 13.2462L35.9029 39.9489L35.8312 40.2933L30.934 34.1275L25.041 13.2462Z" fill="#CFCFCF"/>
<path d="M47.0719 13.1813L36.1999 39.9659L36.0498 39.2497L36.4931 37.1251L36.0498 36.0917L37.8675 31.8834L47.0719 13.1813Z" fill="#CFCFCF"/>
<path d="M35.6026 43.4683L36.0494 44.4948L34.2317 48.7065L25.1943 67.0744L35.9095 40.6786L36.0494 41.3402L35.6026 43.4683Z" fill="#CFCFCF"/>
<path d="M47.0771 67.4189L36.1914 40.6616V40.6582L36.2664 40.2933L41.1636 46.4659L47.0771 67.4189Z" fill="#CFCFCF"/>
<path d="M63.1822 29.2644L63.172 29.2678L44.463 38.4791L39.2214 40.7401L36.0498 40.0785L42.2191 35.1779L56.0376 31.2799L63.1822 29.2644Z" fill="#3F3F3F"/>
<path d="M44.463 42.1144L63.1822 51.329L42.2191 45.4121L36.0498 40.5149L39.2214 39.8499L44.463 42.1144Z" fill="#3F3F3F"/>
<path d="M27.6352 38.4791L8.91602 29.2644L29.8792 35.1779L36.0484 40.0751L32.8769 40.7401L27.6352 38.4791Z" fill="#3F3F3F"/>
<path d="M27.6352 42.1144L8.91602 51.329L29.8792 45.4121L36.0484 40.5149L32.8769 39.8499L27.6352 42.1144Z" fill="#3F3F3F"/>
<path d="M63.1221 29.295L44.4609 38.4756L40.2492 40.2967L39.2193 40.74L37.0947 40.2967L36.4092 40.1535L63.1221 29.295Z" fill="#CFCFCF"/>
<path d="M63.1806 51.329L63.126 51.312L63.1158 51.3086L36.3994 40.4433L37.0917 40.2967H37.0951L39.2197 39.8499L40.2497 40.2967H40.2531L44.4614 42.1144L63.1806 51.329Z" fill="#CFCFCF"/>
<path d="M35.6899 40.1535L35.001 40.2968H34.9976L32.8764 40.7401L31.8499 40.2968H31.8464L27.6381 38.4757L8.91211 29.2644L8.94621 29.2746L35.6899 40.1535Z" fill="#CFCFCF"/>
<path d="M35.6967 40.4433L8.91211 51.329L27.6381 42.1144L31.8464 40.2967L32.8764 39.8499L35.001 40.2967L35.6967 40.4433Z" fill="#CFCFCF"/>
<path d="M57.9144 17.7068L35.6826 37.4388L38.9054 40.6582L58.6374 18.4298L57.9144 17.7068Z" fill="#3F3F3F"/>
<path d="M61.2946 15.1832C60.9638 16.5235 60.5751 17.4136 60.2511 17.9865C59.9305 18.556 59.2894 18.8629 58.6448 18.7845L57.6081 18.6583L57.5433 17.6148C57.5024 16.9634 57.8502 16.3427 58.4334 16.0563C59.0234 15.7664 59.9373 15.4322 61.2946 15.1798V15.1832Z" fill="#3F3F3F"/>
<path d="M14.182 62.8866L36.4138 43.1511L33.1944 39.9318L13.459 62.1636L14.182 62.8866Z" fill="#3F3F3F"/>
<path d="M10.8018 65.4102C11.1326 64.07 11.5213 63.1799 11.8453 62.6069C12.1659 62.0374 12.807 61.7305 13.4516 61.8089L14.4883 61.9351L14.5531 62.9787C14.594 63.63 14.2462 64.2507 13.663 64.5372C13.073 64.827 12.1591 65.1613 10.8018 65.4136V65.4102Z" fill="#3F3F3F"/>
<path d="M58.6374 62.1636L38.9054 39.9318L35.6826 43.1511L57.9144 62.8866L58.6374 62.1636Z" fill="#3F3F3F"/>
<path d="M61.1613 65.5432C59.8211 65.2124 58.931 64.8236 58.3581 64.4996C57.7851 64.1756 57.4816 63.5379 57.5601 62.8934L57.6862 61.8566L58.7298 61.7918C59.3812 61.7509 60.0018 62.0988 60.2883 62.6819C60.5748 63.2651 60.9124 64.1859 61.1648 65.5432H61.1613Z" fill="#3F3F3F"/>
<path d="M13.459 18.4298L33.1944 40.6582L36.4138 37.4388L14.182 17.7068L13.459 18.4298Z" fill="#3F3F3F"/>
<path d="M10.9341 15.0502C12.2743 15.381 13.1644 15.7697 13.7373 16.0937C14.3069 16.4143 14.6138 17.0554 14.5354 17.7L14.4092 18.7367L13.3656 18.8015C12.7143 18.8424 12.0936 18.4946 11.8071 17.9114C11.5172 17.3214 11.183 16.4075 10.9307 15.0502H10.9341Z" fill="#3F3F3F"/>
<path d="M38.9069 39.9318L39.2275 40.2967L38.9069 40.6616L38.542 40.2933L38.9069 39.9318Z" fill="#CFCFCF"/>
<path d="M58.3373 18.1297L57.7848 18.6787L38.3188 38.0356L37.2991 39.0553L35.6826 37.4388L36.0475 37.1183L57.5666 18.0171L57.9144 17.7068L58.3373 18.1297Z" fill="#CFCFCF"/>
<path d="M61.299 15.1798C61.299 15.1798 61.299 15.1798 61.299 15.1866L58.3457 18.1297L57.7932 18.6788L57.6159 18.6583L57.575 18.0172L57.5477 17.6148C57.5102 16.9668 57.8546 16.3461 58.4412 16.0563C59.0312 15.7664 59.9417 15.4322 61.3025 15.1798H61.299Z" fill="#CFCFCF"/>
<path d="M34.8012 41.538L33.7781 42.5577L14.3121 61.9146L13.7596 62.4637L13.4629 62.1636L13.7459 61.8464L32.871 40.2967L33.1949 39.9318L34.8012 41.538Z" fill="#CFCFCF"/>
<path d="M36.4124 43.1511L36.0475 43.4717L35.6826 43.1511L36.0475 42.7896L36.4124 43.1511Z" fill="#CFCFCF"/>
<path d="M14.3124 61.9146L13.76 62.4637L10.8066 65.4C11.1374 64.0631 11.5228 63.1765 11.8468 62.6069C12.1674 62.0374 12.8051 61.7271 13.453 61.8089L13.7463 61.843L14.3124 61.9112V61.9146Z" fill="#CFCFCF"/>
<path d="M36.4124 43.1511L36.0475 43.4717L35.6826 43.1511L36.0475 42.7896L36.4124 43.1511Z" fill="#CFCFCF"/>
<path d="M58.6386 62.1636L58.2157 62.5865L57.6666 62.0374L38.3097 42.5679L37.29 41.5448L38.5416 40.2933L38.9065 39.9318L39.2271 40.2967L58.3282 61.8157L58.6386 62.1636Z" fill="#CFCFCF"/>
<path d="M61.1616 65.5432H61.1514L58.2151 62.5899L57.666 62.0374L57.6899 61.8567L58.3276 61.8158L58.73 61.7885C59.378 61.7475 59.9987 62.0954 60.2885 62.682C60.5784 63.272 60.9126 64.1825 61.165 65.5398L61.1616 65.5432Z" fill="#CFCFCF"/>
<path d="M33.1941 39.9318L33.5556 40.2933L33.1941 40.6616L32.8701 40.2967L33.1941 39.9318Z" fill="#CFCFCF"/>
<path d="M36.4147 37.4388L36.0498 37.8037L34.8085 39.0485L33.7888 38.0254L14.4319 18.5594L13.8828 18.0069L14.1829 17.7068L14.5001 17.9898L36.0498 37.1183L36.4147 37.4388Z" fill="#CFCFCF"/>
<path d="M14.5334 17.6999L14.4993 17.9898L14.4311 18.5593L13.8821 18.0069L10.9424 15.0535C12.2792 15.3809 13.1659 15.7697 13.7388 16.0937C14.3084 16.4142 14.6187 17.052 14.5368 17.6999H14.5334Z" fill="#CFCFCF"/>
<path d="M68.1056 38.7996L67.8225 39.7886L38.3165 38.0323L36.5602 8.52626L37.5492 8.2432C36.2635 7.72484 36.0487 5 36.0487 5C36.0487 5 35.8338 7.72143 34.5515 8.23638L35.5405 8.51944L33.7842 38.0254L4.27821 39.7817L3.99516 38.7928C3.47679 40.0819 0.751953 40.2967 0.751953 40.2967C0.751953 40.2967 3.47338 40.5116 3.98834 41.7938L4.27139 40.8048L33.7774 42.5612L35.5337 72.0672L34.5447 72.3502C35.827 72.8652 36.0418 75.5866 36.0418 75.5866C36.0418 75.5866 36.2567 72.8652 37.539 72.3502L36.55 72.0672L38.3063 42.5612L67.8123 40.8048L68.0953 41.7938C68.6103 40.5116 71.3317 40.2967 71.3317 40.2967C71.3317 40.2967 68.6103 40.0819 68.0953 38.7996H68.1056Z" fill="#3F3F3F"/>
<path d="M71.3454 35.2933C71.3454 35.2933 71.3351 35.2933 71.3147 35.2933H36.0487V70.5866C36.0487 70.5866 35.8338 67.8652 34.5515 67.3468L35.5371 67.0637L33.7808 37.5577L36.0452 35.2933H0.782646C0.762184 35.2933 0.751953 35.2933 0.751953 35.2933C0.751953 35.2933 3.47338 35.0819 3.99175 33.7962L4.2748 34.7852L33.7808 33.0289L35.5371 3.52285L34.5515 3.23979C35.8338 2.72484 36.0487 0 36.0487 0V35.2933L38.3131 33.0289L67.8191 34.7852L68.1022 33.7962C68.6171 35.0819 71.342 35.2933 71.342 35.2933H71.3454Z" fill="#CFCFCF"/>
</svg>
