<svg width="44" height="43" viewBox="0 0 44 43" fill="none" xmlns="http://www.w3.org/2000/svg">
<path d="M20.8931 16.3753L15.2803 4.97305L18.8844 17.7422L21.8674 21.5L22.2704 19.5681L20.8931 16.3753Z" fill="#3F3F3F"/>
<path d="M23.1067 16.3753L28.7196 4.97305L25.1155 17.7422L22.1325 21.5L21.7295 19.5681L23.1067 16.3753Z" fill="#3F3F3F"/>
<path d="M20.8931 26.6226L15.2803 38.027L18.8844 25.2578L21.8674 21.5L22.2704 23.4319L20.8931 26.6226Z" fill="#3F3F3F"/>
<path d="M23.1067 26.6226L28.7196 38.027L25.1155 25.2578L22.1325 21.5L21.7295 23.4319L23.1067 26.6226Z" fill="#3F3F3F"/>
<path d="M15.2949 5.0229L21.9111 21.2881L21.8675 21.4979L18.8845 17.7422L15.2949 5.0229Z" fill="white"/>
<path d="M28.7138 4.98342L22.0914 21.2985L22 20.8623L22.27 19.5681L22 18.9387L23.1072 16.3753L28.7138 4.98342Z" fill="white"/>
<path d="M21.7276 23.4319L21.9997 24.0571L20.8925 26.6226L15.3877 37.8109L21.9146 21.7327L21.9997 22.1356L21.7276 23.4319Z" fill="white"/>
<path d="M28.7176 38.0207L22.0869 21.7223V21.7202L22.1326 21.4979L25.1156 25.2578L28.7176 38.0207Z" fill="white"/>
<path d="M38.527 14.78L38.5207 14.782L27.1247 20.3928L23.9319 21.7701L22 21.3671L25.7578 18.382L34.175 16.0076L38.527 14.78Z" fill="#3F3F3F"/>
<path d="M27.1247 22.6072L38.527 28.22L25.7578 24.6159L22 21.6329L23.9319 21.2279L27.1247 22.6072Z" fill="#3F3F3F"/>
<path d="M16.8749 20.3928L5.47266 14.78L18.2418 18.382L21.9996 21.365L20.0677 21.7701L16.8749 20.3928Z" fill="#3F3F3F"/>
<path d="M16.8749 22.6072L5.47266 28.22L18.2418 24.6159L21.9996 21.6329L20.0677 21.2279L16.8749 22.6072Z" fill="#3F3F3F"/>
<path d="M38.4912 14.7986L27.1242 20.3907L24.5588 21.5L23.9314 21.77L22.6373 21.5L22.2197 21.4128L38.4912 14.7986Z" fill="white"/>
<path d="M38.5269 28.22L38.4936 28.2097L38.4874 28.2076L22.2139 21.5893L22.6356 21.5H22.6376L23.9318 21.2279L24.5591 21.5H24.5612L27.1246 22.6072L38.5269 28.22Z" fill="white"/>
<path d="M21.7816 21.4128L21.362 21.5H21.3599L20.0679 21.7701L19.4426 21.5H19.4405L16.8771 20.3907L5.4707 14.78L5.49148 14.7862L21.7816 21.4128Z" fill="white"/>
<path d="M21.7858 21.5893L5.4707 28.22L16.8771 22.6072L19.4405 21.5L20.0679 21.2279L21.362 21.5L21.7858 21.5893Z" fill="white"/>
<path d="M35.3192 7.74L21.7773 19.7592L23.7404 21.7202L35.7596 8.18038L35.3192 7.74Z" fill="#3F3F3F"/>
<path d="M37.3778 6.2028C37.1763 7.01918 36.9395 7.56135 36.7422 7.91034C36.5469 8.25724 36.1564 8.4442 35.7638 8.39642L35.1323 8.31956L35.0928 7.68391C35.0679 7.28715 35.2798 6.90908 35.635 6.73459C35.9943 6.55802 36.5511 6.35444 37.3778 6.20072V6.2028Z" fill="#3F3F3F"/>
<path d="M8.68062 35.26L22.2225 23.2387L20.2615 21.2777L8.24023 34.8196L8.68062 35.26Z" fill="#3F3F3F"/>
<path d="M6.62207 36.7972C6.82357 35.9808 7.06038 35.4386 7.25772 35.0897C7.45299 34.7427 7.84352 34.5558 8.23613 34.6036L8.86763 34.6804L8.90709 35.3161C8.93202 35.7128 8.72014 36.0909 8.36492 36.2654C8.00555 36.442 7.44883 36.6455 6.62207 36.7993V36.7972Z" fill="#3F3F3F"/>
<path d="M35.7596 34.8196L23.7404 21.2777L21.7773 23.2387L35.3192 35.26L35.7596 34.8196Z" fill="#3F3F3F"/>
<path d="M37.2968 36.8782C36.4804 36.6767 35.9382 36.4399 35.5892 36.2426C35.2402 36.0452 35.0554 35.6568 35.1031 35.2641L35.18 34.6327L35.8156 34.5932C36.2124 34.5683 36.5905 34.7801 36.765 35.1354C36.9395 35.4906 37.1451 36.0514 37.2988 36.8782H37.2968Z" fill="#3F3F3F"/>
<path d="M8.24023 8.18038L20.2615 21.7202L22.2225 19.7592L8.68062 7.74L8.24023 8.18038Z" fill="#3F3F3F"/>
<path d="M6.70227 6.12178C7.51865 6.32328 8.06082 6.56009 8.40981 6.75743C8.75672 6.9527 8.94367 7.34323 8.8959 7.73584L8.81904 8.36734L8.18338 8.4068C7.78662 8.43173 7.40855 8.21985 7.23406 7.86463C7.05749 7.50526 6.85392 6.94854 6.7002 6.12178H6.70227Z" fill="#3F3F3F"/>
<path d="M23.7408 21.2777L23.9361 21.5L23.7408 21.7223L23.5186 21.4979L23.7408 21.2777Z" fill="white"/>
<path d="M35.5768 7.99758L35.2403 8.33203L23.3831 20.1228L22.762 20.7439L21.7773 19.7592L21.9996 19.564L35.1073 7.92903L35.3192 7.74L35.5768 7.99758Z" fill="white"/>
<path d="M37.3805 6.20072C37.3805 6.20072 37.3805 6.20072 37.3805 6.20488L35.5815 7.99758L35.245 8.33203L35.137 8.31956L35.1121 7.92903L35.0954 7.68391C35.0726 7.28922 35.2824 6.91116 35.6397 6.73459C35.9991 6.55802 36.5537 6.35444 37.3825 6.20072H37.3805Z" fill="white"/>
<path d="M21.2398 22.2561L20.6166 22.8772L8.75943 34.668L8.42291 35.0024L8.24219 34.8196L8.4146 34.6264L20.0641 21.5L20.2614 21.2777L21.2398 22.2561Z" fill="white"/>
<path d="M22.2219 23.2387L21.9996 23.434L21.7773 23.2387L21.9996 23.0185L22.2219 23.2387Z" fill="white"/>
<path d="M8.75948 34.668L8.42296 35.0024L6.62402 36.791C6.82552 35.9767 7.06026 35.4366 7.2576 35.0896C7.45286 34.7427 7.84132 34.5537 8.236 34.6036L8.41465 34.6243L8.75948 34.6659V34.668Z" fill="white"/>
<path d="M22.2219 23.2387L21.9996 23.434L21.7773 23.2387L21.9996 23.0185L22.2219 23.2387Z" fill="white"/>
<path d="M35.7597 34.8196L35.5021 35.0772L35.1677 34.7427L23.377 22.8835L22.7559 22.2603L23.5182 21.4979L23.7405 21.2777L23.9358 21.5L35.5707 34.6077L35.7597 34.8196Z" fill="white"/>
<path d="M37.2972 36.8782H37.291L35.5024 35.0793L35.168 34.7427L35.1825 34.6327L35.571 34.6077L35.8161 34.5911C36.2108 34.5662 36.5888 34.7781 36.7654 35.1354C36.942 35.4947 37.1456 36.0494 37.2993 36.8761L37.2972 36.8782Z" fill="white"/>
<path d="M20.2608 21.2777L20.481 21.4979L20.2608 21.7223L20.0635 21.5L20.2608 21.2777Z" fill="white"/>
<path d="M22.2227 19.7592L22.0005 19.9815L21.2443 20.7397L20.6232 20.1165L8.83249 8.25933L8.49805 7.92281L8.68085 7.74001L8.87404 7.91242L22.0005 19.564L22.2227 19.7592Z" fill="white"/>
<path d="M8.89442 7.73584L8.87365 7.91241L8.8321 8.25932L8.49766 7.9228L6.70703 6.12386C7.52133 6.32328 8.06143 6.56009 8.41041 6.75744C8.75732 6.9527 8.94635 7.34116 8.8965 7.73584H8.89442Z" fill="white"/>
<path d="M41.5266 20.5881L41.3542 21.1905L23.3814 20.1207L22.3116 2.14792L22.914 1.97551C22.1309 1.65976 22 0 22 0C22 0 21.8691 1.65768 21.0881 1.97135L21.6905 2.14377L20.6207 20.1165L2.64792 21.1863L2.47551 20.5839C2.15976 21.3691 0.5 21.5 0.5 21.5C0.5 21.5 2.15768 21.6309 2.47135 22.4119L2.64377 21.8095L20.6165 22.8793L21.6863 40.8521L21.0839 41.0245C21.865 41.3382 21.9958 42.9958 21.9958 42.9958C21.9958 42.9958 22.1267 41.3382 22.9078 41.0245L22.3054 40.8521L23.3752 22.8793L41.3479 21.8095L41.5203 22.4119C41.834 21.6309 43.4917 21.5 43.4917 21.5C43.4917 21.5 41.834 21.3691 41.5203 20.5881H41.5266Z" fill="#3F3F3F"/>
<path d="M43.5 21.4979C43.5 21.4979 43.4938 21.4979 43.4813 21.4979H22V42.9958C22 42.9958 21.8691 41.3382 21.0881 41.0224L21.6884 40.85L20.6186 22.8772L21.9979 21.4979H0.518696C0.506232 21.4979 0.5 21.4979 0.5 21.4979C0.5 21.4979 2.15768 21.3691 2.47343 20.586L2.64585 21.1884L20.6186 20.1186L21.6884 2.14585L21.0881 1.97343C21.8691 1.65976 22 0 22 0V21.4979L23.3793 20.1186L41.3521 21.1884L41.5245 20.586C41.8382 21.3691 43.4979 21.4979 43.4979 21.4979H43.5Z" fill="white"/>
</svg>
