<svg width="219" height="220" viewBox="0 0 219 220" fill="none" xmlns="http://www.w3.org/2000/svg">
<rect x="15" y="16" width="188.16" height="188.16" rx="94.08" fill="black"/>
<g opacity="0.7" clip-path="url(#clip0_40_350)">
<g clip-path="url(#clip1_40_350)">
<path d="M158.503 152.032L159.754 152.978L162.857 148.871L170.678 154.783L171.727 153.393L162.657 146.537L158.503 152.032Z" fill="white"/>
<path d="M153.379 159.324L157.224 155.443L159.766 157.961L156.333 161.426L157.414 162.497L160.847 159.032L163.141 161.305L159.374 165.108L160.454 166.178L165.447 161.138L157.371 153.135L152.299 158.254L153.379 159.324Z" fill="white"/>
<path d="M147.395 161.961L153.335 169.76L150.387 172.005L151.336 173.253L158.618 167.707L157.669 166.459L154.72 168.705L148.782 160.906L147.395 161.961Z" fill="white"/>
<path d="M146.555 174.278C147.026 175.066 147.765 175.343 148.485 174.912C149.083 174.554 149.271 173.943 148.945 173.399C148.668 172.937 148.073 172.777 147.557 173.086C147.462 173.143 147.362 173.222 147.277 173.328C147.041 172.657 147.357 171.951 148.142 171.536L147.702 170.802C146.278 171.508 145.854 173.11 146.555 174.278Z" fill="white"/>
<path d="M132.828 173.585C133.529 175.128 134.878 175.455 136.815 175.009L138.48 174.618C139.538 174.381 140.546 174.341 140.992 175.321C141.398 176.215 141.023 177.342 139.682 177.951C138.384 178.541 137.097 178.082 136.448 176.881L134.833 177.615C135.899 179.618 138.124 180.19 140.272 179.213C142.421 178.238 143.353 176.231 142.561 174.487C141.762 172.728 140.101 172.595 138.514 172.968L136.883 173.361C135.569 173.645 134.81 173.468 134.417 172.603C133.932 171.536 134.631 170.471 135.943 169.874C137.529 169.154 138.752 169.625 139.42 170.904L141.035 170.17C139.968 168.167 137.833 167.486 135.338 168.618C132.829 169.758 132.01 171.783 132.828 173.585Z" fill="white"/>
<path d="M117.602 173.744L115.826 174.07L114.973 185.789L116.654 185.479L117.216 176.456L121.124 184.657L122.9 184.33L123.666 175.284L127.401 183.501L129.083 183.191L124.112 172.545L122.352 172.869L121.583 182.076L117.602 173.744Z" fill="white"/>
<path d="M107.822 173.889C104.528 173.861 102.021 176.422 101.993 179.779C101.965 183.137 104.43 185.706 107.724 185.734C111.018 185.761 113.525 183.232 113.553 179.875C113.581 176.518 111.116 173.916 107.822 173.889ZM107.809 175.457C110.216 175.477 111.768 177.421 111.748 179.86C111.728 182.299 110.144 184.186 107.737 184.166C105.33 184.146 103.778 182.233 103.798 179.794C103.818 177.355 105.402 175.437 107.809 175.457Z" fill="white"/>
<path d="M99.7527 173.412L99.0163 177.624L96.9571 177.264L94.9009 172.564L92.8417 172.204L95.1041 177.197C93.3327 177.306 92.103 178.36 91.822 179.967C91.4326 182.198 92.7558 183.732 95.3298 184.181L99.5106 184.912L101.468 173.711L99.7527 173.412ZM98.0458 183.178L95.6899 182.765C94.0987 182.487 93.3197 181.612 93.5538 180.27C93.7911 178.913 94.8184 178.369 96.4096 178.647L98.7655 179.059L98.0458 183.178Z" fill="white"/>
<path d="M90.0614 171.157L88.384 176.156L85.542 169.641L83.47 168.946L86.5514 176.093L79.974 179.766L81.8811 180.406L88.1177 176.952L86.4455 181.937L88.0972 182.491L91.7126 171.71L90.0614 171.157Z" fill="white"/>
<path d="M74.8737 164.122L69.8617 172.546L66.6765 170.651L65.8752 171.999L73.7414 176.679L74.5433 175.332L71.3588 173.437L76.3703 165.012L74.8737 164.122Z" fill="white"/>
<path d="M67.2365 158.135C64.7082 156.023 61.1453 156.411 58.9933 158.988C56.8414 161.565 57.1154 165.116 59.6437 167.227C62.1721 169.338 65.7147 168.975 67.8667 166.398C70.0186 163.821 69.7649 160.246 67.2365 158.135ZM66.2316 159.338C68.0793 160.881 68.0442 163.369 66.481 165.241C64.9177 167.113 62.4963 167.566 60.6487 166.024C58.801 164.481 58.8158 162.017 60.379 160.145C61.9423 158.273 64.384 157.795 66.2316 159.338Z" fill="white"/>
<path d="M59.3156 149.943C57.0741 147.276 53.7341 147.166 50.9864 149.558L54.695 153.971L55.7619 153.075L53.2352 150.068C54.9302 149.057 56.7801 149.24 58.1352 150.853C59.7654 152.792 59.2988 155.191 57.3711 156.811C55.3223 158.533 52.9858 158.386 51.539 156.665C50.2859 155.174 50.3417 153.492 51.182 152.228L49.8779 150.676C48.5197 152.727 48.4233 155.394 50.3082 157.637C52.4376 160.171 55.9382 160.373 58.5084 158.213C61.1514 155.992 61.4246 152.453 59.3156 149.943Z" fill="white"/>
<path d="M50.3185 139.585L53.1399 144.264L50.0749 146.112L47.5562 141.935L46.2543 142.72L48.7731 146.897L46.0065 148.565L43.2424 143.982L41.9405 144.767L45.6041 150.842L55.3413 144.971L51.6204 138.8L50.3185 139.585Z" fill="white"/>
<path d="M49.2266 133.139L40.2109 136.987L38.7561 133.579L37.3141 134.194L40.9075 142.613L42.3495 141.997L40.8947 138.589L49.9105 134.741L49.2266 133.139Z" fill="white"/>
<path d="M47.1758 127.099L42.2351 128.361L40.8089 122.776L45.7496 121.514L45.3186 119.826L34.3016 122.639L34.7327 124.327L39.3359 123.152L40.7621 128.737L36.1589 129.912L36.5899 131.6L47.6069 128.787L47.1758 127.099Z" fill="white"/>
<path d="M43.0616 111.268L43.6041 116.705L40.0428 117.06L39.5585 112.207L38.0457 112.358L38.53 117.211L35.3153 117.532L34.7838 112.206L33.2711 112.357L33.9755 119.416L45.2898 118.287L44.5744 111.117L43.0616 111.268Z" fill="white"/>
<path d="M44.7204 107.774L40.449 107.58L40.544 105.492L44.9441 102.854L45.0391 100.766L40.3743 103.645C40.0413 101.902 38.8383 100.817 37.2088 100.743C34.9466 100.64 33.594 102.148 33.4753 104.758L33.2825 108.998L44.6413 109.515L44.7204 107.774ZM34.8171 107.324L34.9257 104.935C34.9991 103.322 35.7685 102.437 37.129 102.499C38.5054 102.562 39.1756 103.512 39.1022 105.125L38.9936 107.514L34.8171 107.324Z" fill="white"/>
<path d="M46.8532 80.3364C45.5037 79.7874 44.1563 80.3678 43.6252 81.6733C43.0941 82.9789 43.6539 84.3349 45.0033 84.8839C46.3089 85.4149 47.6416 84.8287 48.1727 83.5231C48.7037 82.2176 48.1588 80.8675 46.8532 80.3364Z" fill="white"/>
<path d="M63.6105 63.354L62.4276 62.325L59.0498 66.2084L51.6536 59.7749L50.5103 61.0893L59.0895 68.5517L63.6105 63.354Z" fill="white"/>
<path d="M69.2241 56.4283L65.1215 60.0366L62.7578 57.3491L66.4204 54.1278L65.4163 52.9863L61.7538 56.2076L59.6202 53.7817L63.6395 50.2467L62.6354 49.1051L57.3081 53.7906L64.8175 62.3286L70.2281 57.5699L69.2241 56.4283Z" fill="white"/>
<path d="M75.3745 54.2065L69.9843 46.0188L73.08 43.9809L72.2177 42.6716L64.5723 47.7044L65.4343 49.014L68.5296 46.9764L73.9196 55.1643L75.3745 54.2065Z" fill="white"/>
<path d="M77.0577 41.9775C76.6404 41.1593 75.9229 40.8317 75.175 41.2129C74.5543 41.5292 74.3248 42.1263 74.6129 42.6903C74.8572 43.1702 75.4395 43.3711 75.9755 43.0979C76.0744 43.0475 76.1803 42.9756 76.2715 42.8759C76.4612 43.5611 76.098 44.244 75.2863 44.6045L75.6746 45.3664C77.143 44.7601 77.6763 43.1908 77.0577 41.9775Z" fill="white"/>
<path d="M90.7063 43.6114C90.1127 42.0244 88.7902 41.6055 86.8265 41.9173L85.1381 42.1931C84.066 42.3575 83.0582 42.3284 82.681 41.3198C82.3371 40.4001 82.7887 39.3014 84.1683 38.7856C85.5032 38.2866 86.7555 38.833 87.3218 40.0751L88.9828 39.4542C88.0566 37.3827 85.8754 36.6598 83.6656 37.4857C81.455 38.3122 80.3876 40.2496 81.0586 42.0445C81.735 43.8544 83.3823 44.1009 84.9918 43.8371L86.6454 43.5571C87.9762 43.3641 88.7212 43.5926 89.0538 44.4828C89.4644 45.5803 88.694 46.5953 87.3438 47.1003C85.7121 47.7102 84.5247 47.1566 83.9458 45.8346L82.2847 46.4554C83.2108 48.5269 85.2958 49.3534 87.8619 48.3941C90.4428 47.4294 91.3993 45.4657 90.7063 43.6114Z" fill="white"/>
<path d="M105.907 44.497L107.701 44.2929L109.356 32.6603L107.657 32.8539L106.478 41.8183L103.141 33.3682L101.348 33.5723L99.9627 42.5444L96.7999 34.0907L95.1004 34.2844L99.3303 45.2461L101.108 45.0438L102.506 35.9109L105.907 44.497Z" fill="white"/>
<path d="M115.673 45.0209C118.957 45.2743 121.635 42.8911 121.892 39.5441C122.15 36.1966 119.867 33.4635 116.583 33.2103C113.299 32.957 110.624 35.3084 110.366 38.6554C110.108 42.0029 112.389 44.7677 115.673 45.0209ZM115.793 43.4579C113.394 43.2724 111.979 41.2261 112.166 38.7946C112.353 36.363 114.063 34.5885 116.463 34.7733C118.863 34.9582 120.28 36.9734 120.093 39.4049C119.905 41.8371 118.193 43.6427 115.793 43.4579Z" fill="white"/>
<path d="M123.691 46.0515L124.714 41.8998L126.744 42.4002L128.473 47.2303L130.502 47.7307L128.588 42.594C130.363 42.6072 131.662 41.6387 132.052 40.0551C132.594 37.8561 131.379 36.2354 128.842 35.6103L124.721 34.5941L122 45.6345L123.691 46.0515ZM126.064 36.4257L128.385 36.9983C129.954 37.3851 130.671 38.3122 130.345 39.6346C130.016 40.9719 128.953 41.4439 127.385 41.0577L125.063 40.4851L126.064 36.4257Z" fill="white"/>
<path d="M133.204 48.9676L135.22 44.0948L137.609 50.79L139.628 51.6256L137.044 44.2841L143.857 41.0702L141.999 40.3014L135.54 43.3195L137.551 38.4608L135.941 37.7947L131.594 48.3021L133.204 48.9676Z" fill="white"/>
<path d="M147.874 57.0281L153.451 48.9672L156.498 51.0761L157.391 49.7864L149.863 44.5784L148.972 45.8674L152.019 47.9763L146.441 56.0371L147.874 57.0281Z" fill="white"/>
<path d="M155.083 63.5233C157.461 65.8032 161.042 65.6607 163.366 63.2372C165.689 60.8142 165.659 57.2529 163.282 54.9731C160.904 52.6938 157.345 52.8127 155.021 55.2363C152.698 57.6593 152.706 61.2434 155.083 63.5233ZM156.168 62.3916C154.431 60.7258 154.636 58.2462 156.324 56.4858C158.012 54.7255 160.459 54.4391 162.197 56.1048C163.934 57.7712 163.75 60.228 162.063 61.9877C160.375 63.7481 157.905 64.058 156.168 62.3916Z" fill="white"/>
<path d="M162.421 72.2378C164.475 75.0521 167.799 75.3913 170.705 73.1931L167.307 68.5363L166.181 69.3577L168.496 72.5305C166.736 73.4226 164.903 73.1133 163.661 71.4116C162.168 69.3642 162.798 67.0034 164.833 65.5193C166.995 63.9419 169.316 64.2484 170.641 66.0653C171.789 67.6389 171.618 69.3123 170.693 70.5164L171.888 72.1538C173.383 70.2002 173.662 67.5468 171.935 65.1797C169.985 62.5056 166.507 62.0634 163.794 64.0422C161.005 66.0772 160.49 69.5892 162.421 72.2378Z" fill="white"/>
<path d="M170.688 83.189L168.194 78.328L171.378 76.6942L173.604 81.034L174.957 80.3397L172.73 76.0005L175.605 74.5258L178.048 79.2878L179.4 78.5941L176.163 72.2817L166.045 77.4718L169.334 83.8833L170.688 83.189Z" fill="white"/>
<path d="M171.335 89.6956L180.594 86.4754L181.811 89.9754L183.292 89.4596L180.285 80.8147L178.804 81.3293L180.022 84.8293L170.763 88.0508L171.335 89.6956Z" fill="white"/>
<path d="M172.966 95.8606L177.982 94.9405L179.022 100.611L174.006 101.531L174.321 103.244L185.504 101.193L185.19 99.4789L180.517 100.336L179.477 94.6663L184.151 93.8095L183.836 92.0959L172.652 94.1476L172.966 95.8606Z" fill="white"/>
<path d="M175.985 111.936L175.816 106.475L179.394 106.364L179.545 111.24L181.064 111.193L180.913 106.318L184.143 106.218L184.308 111.568L185.827 111.522L185.609 104.43L174.243 104.78L174.465 111.983L175.985 111.936Z" fill="white"/>
<path d="M174.092 115.31L178.34 115.796L178.102 117.873L173.531 120.203L173.293 122.28L178.144 119.727C178.357 121.489 179.483 122.654 181.103 122.839C183.353 123.097 184.806 121.686 185.103 119.09L185.586 114.873L174.29 113.579L174.092 115.31ZM183.941 116.438L183.669 118.814C183.484 120.418 182.656 121.248 181.304 121.093C179.934 120.937 179.331 119.942 179.515 118.338L179.787 115.962L183.941 116.438Z" fill="white"/>
<path d="M173.61 138.323C174.918 138.963 176.303 138.477 176.923 137.211C177.541 135.944 177.076 134.553 175.767 133.913C174.501 133.294 173.132 133.787 172.512 135.053C171.893 136.319 172.344 137.704 173.61 138.323Z" fill="white"/>
</g>
</g>
<g opacity="0.7" clip-path="url(#clip2_40_350)">
<path fill-rule="evenodd" clip-rule="evenodd" d="M93.3296 110.147C93.3296 109.364 93.964 108.73 94.7467 108.73H119.667L113.068 102.13C112.515 101.577 112.515 100.68 113.068 100.126C113.621 99.5729 114.519 99.5729 115.072 100.126L124.09 109.145C124.644 109.698 124.644 110.595 124.09 111.149L115.072 120.167C114.519 120.72 113.621 120.72 113.068 120.167C112.515 119.614 112.515 118.716 113.068 118.163L119.667 111.564H94.7467C93.964 111.564 93.3296 110.929 93.3296 110.147Z" fill="white"/>
</g>
<defs>
<clipPath id="clip0_40_350">
<rect width="154.56" height="154.56" fill="white" transform="translate(0 106) rotate(-42.96)"/>
</clipPath>
<clipPath id="clip1_40_350">
<rect width="154.56" height="152.752" fill="white" transform="translate(0.910156 106.04) rotate(-42.96)"/>
</clipPath>
<clipPath id="clip2_40_350">
<rect width="33.59" height="35.99" fill="white" transform="translate(92.2798 92.09)"/>
</clipPath>
</defs>
</svg>
