<svg width="170" height="170" viewBox="0 0 170 170" fill="none" xmlns="http://www.w3.org/2000/svg">
<rect x="12" y="12" width="146" height="146" rx="73" fill="black"/>
<g opacity="0.7" clip-path="url(#clip0_157_1361)">
<g clip-path="url(#clip1_157_1361)">
<path d="M123.411 117.614L124.381 118.348L126.789 115.162L132.858 119.749L133.672 118.67L126.634 113.35L123.411 117.614Z" fill="white"/>
<path d="M119.435 123.272L122.419 120.261L124.391 122.215L121.727 124.903L122.566 125.734L125.229 123.045L127.01 124.81L124.087 127.76L124.925 128.59L128.799 124.68L122.532 118.47L118.597 122.442L119.435 123.272Z" fill="white"/>
<path d="M114.793 125.318L119.401 131.37L117.113 133.112L117.85 134.08L123.501 129.777L122.764 128.809L120.476 130.551L115.868 124.5L114.793 125.318Z" fill="white"/>
<path d="M114.14 134.876C114.506 135.487 115.08 135.702 115.638 135.367C116.102 135.09 116.248 134.616 115.995 134.194C115.78 133.835 115.318 133.711 114.918 133.951C114.844 133.995 114.766 134.056 114.701 134.138C114.518 133.618 114.762 133.07 115.372 132.748L115.03 132.179C113.926 132.726 113.597 133.97 114.14 134.876Z" fill="white"/>
<path d="M103.489 134.338C104.033 135.535 105.079 135.789 106.583 135.443L107.875 135.139C108.696 134.956 109.478 134.924 109.824 135.685C110.139 136.379 109.848 137.253 108.807 137.726C107.801 138.183 106.802 137.827 106.298 136.896L105.045 137.465C105.872 139.019 107.599 139.463 109.266 138.705C110.933 137.948 111.656 136.391 111.041 135.037C110.421 133.673 109.133 133.57 107.901 133.859L106.636 134.164C105.616 134.384 105.027 134.247 104.722 133.576C104.346 132.748 104.888 131.921 105.906 131.458C107.137 130.9 108.086 131.265 108.604 132.257L109.857 131.688C109.03 130.134 107.372 129.605 105.437 130.484C103.49 131.368 102.854 132.94 103.489 134.338Z" fill="white"/>
<path d="M91.6742 134.461L90.2965 134.715L89.6342 143.808L90.9392 143.567L91.3746 136.566L94.4076 142.929L95.7853 142.675L96.3799 135.656L99.2779 142.032L100.583 141.792L96.7256 133.531L95.3603 133.783L94.7638 140.927L91.6742 134.461Z" fill="white"/>
<path d="M84.0862 134.573C81.5301 134.552 79.5846 136.539 79.5629 139.144C79.5417 141.749 81.4541 143.743 84.0102 143.765C86.5657 143.785 88.5113 141.823 88.533 139.218C88.5547 136.613 86.6422 134.595 84.0862 134.573ZM84.0763 135.79C85.944 135.805 87.1477 137.314 87.1323 139.207C87.1166 141.099 85.8878 142.563 84.0201 142.548C82.1523 142.532 80.9482 141.048 80.964 139.156C80.9794 137.263 82.2085 135.775 84.0763 135.79Z" fill="white"/>
<path d="M77.8248 134.204L77.2535 137.472L75.6557 137.192L74.0602 133.545L72.4624 133.266L74.2178 137.141C72.8433 137.225 71.8892 138.043 71.6712 139.29C71.369 141.021 72.3957 142.211 74.3929 142.56L77.637 143.127L79.156 134.436L77.8248 134.204ZM76.5004 141.781L74.6724 141.461C73.4377 141.245 72.8332 140.566 73.0149 139.525C73.199 138.472 73.9961 138.05 75.2308 138.266L77.0589 138.585L76.5004 141.781Z" fill="white"/>
<path d="M70.305 132.454L69.0034 136.333L66.7981 131.277L65.1904 130.738L67.5814 136.284L62.4778 139.134L63.9575 139.63L68.7967 136.951L67.4992 140.818L68.7808 141.248L71.5861 132.883L70.305 132.454Z" fill="white"/>
<path d="M58.5203 126.995L54.6312 133.532L52.1597 132.062L51.5379 133.107L57.6416 136.739L58.2639 135.693L55.7929 134.223L59.6815 127.686L58.5203 126.995Z" fill="white"/>
<path d="M52.5943 122.35C50.6325 120.711 47.8679 121.012 46.1981 123.012C44.5284 125.011 44.741 127.766 46.7028 129.404C48.6646 131.043 51.4135 130.761 53.0833 128.761C54.7531 126.762 54.5562 123.988 52.5943 122.35ZM51.8146 123.283C53.2482 124.48 53.221 126.411 52.0081 127.863C50.7951 129.316 48.9162 129.668 47.4826 128.471C46.0489 127.273 46.0604 125.362 47.2734 123.909C48.4864 122.457 50.381 122.086 51.8146 123.283Z" fill="white"/>
<path d="M46.4482 115.994C44.7089 113.924 42.1173 113.839 39.9852 115.695L42.8629 119.119L43.6907 118.423L41.7302 116.09C43.0454 115.306 44.4808 115.448 45.5322 116.699C46.7972 118.204 46.4351 120.066 44.9394 121.323C43.3496 122.659 41.5366 122.545 40.414 121.209C39.4417 120.052 39.485 118.748 40.137 117.766L39.1251 116.562C38.0713 118.154 37.9964 120.223 39.459 121.964C41.1113 123.93 43.8275 124.087 45.8218 122.411C47.8726 120.687 48.0846 117.941 46.4482 115.994Z" fill="white"/>
<path d="M39.4671 107.956L41.6564 111.587L39.2781 113.021L37.3238 109.78L36.3135 110.389L38.268 113.63L36.1213 114.924L33.9765 111.368L32.9663 111.977L35.8091 116.691L43.3645 112.135L40.4774 107.347L39.4671 107.956Z" fill="white"/>
<path d="M38.6197 102.954L31.624 105.94L30.4952 103.296L29.3764 103.773L32.1646 110.306L33.2835 109.828L32.1547 107.183L39.1503 104.197L38.6197 102.954Z" fill="white"/>
<path d="M37.0283 98.2677L33.1946 99.2467L32.0879 94.9129L35.9216 93.9339L35.5872 92.6243L27.0387 94.8072L27.3732 96.1169L30.945 95.2048L32.0516 99.5385L28.4799 100.451L28.8143 101.76L37.3628 99.5773L37.0283 98.2677Z" fill="white"/>
<path d="M33.8364 85.9842L34.2573 90.2026L31.4939 90.4784L31.1182 86.7124L29.9443 86.8295L30.3201 90.5955L27.8257 90.8443L27.4134 86.7115L26.2396 86.8286L26.7861 92.3065L35.5653 91.4305L35.0102 85.8671L33.8364 85.9842Z" fill="white"/>
<path d="M35.1235 83.2733L31.8092 83.1226L31.8828 81.5022L35.297 79.4556L35.3707 77.8353L31.7512 80.0694C31.4928 78.7168 30.5594 77.8749 29.295 77.8174C27.5397 77.7376 26.4901 78.9076 26.398 80.933L26.2484 84.2228L35.0621 84.6236L35.1235 83.2733ZM27.4391 82.9239L27.5234 81.0704C27.5804 79.8182 28.1774 79.132 29.2331 79.1799C30.301 79.2285 30.8211 79.9656 30.7641 81.2177L30.6798 83.0712L27.4391 82.9239Z" fill="white"/>
<path d="M36.7781 61.9834C35.731 61.5574 34.6855 62.0077 34.2734 63.0206C33.8613 64.0337 34.2956 65.0859 35.3428 65.5119C36.3558 65.9239 37.3899 65.4691 37.8019 64.456C38.214 63.443 37.7912 62.3954 36.7781 61.9834Z" fill="white"/>
<path d="M49.7806 48.8058L48.8627 48.0074L46.2418 51.0207L40.5028 46.0287L39.6157 47.0486L46.2726 52.8389L49.7806 48.8058Z" fill="white"/>
<path d="M54.1364 43.4321L50.9531 46.2319L49.119 44.1466L51.961 41.647L51.1819 40.7613L48.34 43.2608L46.6844 41.3785L49.8032 38.6355L49.0241 37.7498L44.8904 41.3854L50.7172 48.0103L54.9155 44.3179L54.1364 43.4321Z" fill="white"/>
<path d="M58.9088 41.7081L54.7264 35.355L57.1284 33.7737L56.4593 32.7578L50.527 36.663L51.1958 37.6791L53.5975 36.0981L57.7798 42.4513L58.9088 41.7081Z" fill="white"/>
<path d="M60.2148 32.2191C59.891 31.5843 59.3342 31.3301 58.7539 31.6259C58.2723 31.8713 58.0942 32.3346 58.3177 32.7723C58.5073 33.1446 58.9591 33.3005 59.3751 33.0885C59.4518 33.0494 59.534 32.9936 59.6047 32.9163C59.752 33.448 59.4701 33.9779 58.8403 34.2575L59.1416 34.8487C60.281 34.3783 60.6947 33.1606 60.2148 32.2191Z" fill="white"/>
<path d="M70.8053 33.4867C70.3448 32.2553 69.3186 31.9303 67.7948 32.1721L66.4848 32.3862C65.6529 32.5138 64.8709 32.4911 64.5782 31.7085C64.3114 30.9949 64.6618 30.1424 65.7323 29.7421C66.7681 29.355 67.7398 29.7789 68.1792 30.7427L69.468 30.261C68.7494 28.6536 67.0569 28.0927 65.3422 28.7335C63.627 29.3749 62.7987 30.8782 63.3194 32.2709C63.8442 33.6752 65.1224 33.8665 66.3713 33.6618L67.6543 33.4445C68.6869 33.2948 69.2651 33.4721 69.5231 34.1629C69.8417 35.0144 69.244 35.802 68.1963 36.1938C66.9302 36.6671 66.0088 36.2375 65.5596 35.2117L64.2707 35.6934C64.9894 37.3008 66.6071 37.9421 68.5983 37.1977C70.6009 36.4492 71.3431 34.9255 70.8053 33.4867Z" fill="white"/>
<path d="M82.6005 34.174L83.9922 34.0156L85.2766 24.9895L83.958 25.1397L83.0436 32.0955L80.4541 25.5388L79.0625 25.6972L77.9879 32.6589L75.5338 26.0994L74.2151 26.2497L77.4973 34.7553L78.8767 34.5983L79.9616 27.5118L82.6005 34.174Z" fill="white"/>
<path d="M90.1779 34.5804C92.7262 34.777 94.804 32.9278 95.0037 30.3307C95.2041 27.7333 93.4325 25.6126 90.8843 25.4161C88.3361 25.2196 86.2603 27.0441 86.0605 29.6412C85.8602 32.2386 87.6298 34.3839 90.1779 34.5804ZM90.2714 33.3676C88.4095 33.2237 87.3114 31.6359 87.4567 29.7491C87.6021 27.8624 88.9285 26.4855 90.7909 26.6289C92.6532 26.7723 93.7529 28.336 93.6075 30.2228C93.4616 32.1099 92.1337 33.511 90.2714 33.3676Z" fill="white"/>
<path d="M96.3994 35.3803L97.1936 32.1589L98.7684 32.5472L100.11 36.295L101.685 36.6833L100.199 32.6975C101.576 32.7078 102.584 31.9563 102.887 30.7275C103.308 29.0212 102.365 27.7637 100.396 27.2786L97.199 26.4901L95.0871 35.0568L96.3994 35.3803ZM98.2407 27.9113L100.042 28.3556C101.259 28.6558 101.816 29.3751 101.563 30.4012C101.307 31.4389 100.483 31.8051 99.2656 31.5055L97.4642 31.0612L98.2407 27.9113Z" fill="white"/>
<path d="M103.781 37.643L105.345 33.8621L107.198 39.0572L108.765 39.7055L106.76 34.009L112.047 31.5152L110.605 30.9186L105.594 33.2605L107.153 29.4905L105.904 28.9737L102.531 37.1267L103.781 37.643Z" fill="white"/>
<path d="M115.163 43.8977L119.491 37.6429L121.856 39.2793L122.548 38.2786L116.707 34.2375L116.015 35.2377L118.38 36.8741L114.051 43.1288L115.163 43.8977Z" fill="white"/>
<path d="M120.758 48.9374C122.603 50.7065 125.381 50.5959 127.185 48.7154C128.987 46.8353 128.964 44.072 127.119 42.303C125.274 40.5344 122.513 40.6267 120.71 42.5072C118.907 44.3873 118.913 47.1684 120.758 48.9374ZM121.6 48.0593C120.251 46.7667 120.411 44.8427 121.721 43.4768C123.031 42.1108 124.929 41.8886 126.277 43.1812C127.625 44.4742 127.483 46.3804 126.173 47.7459C124.864 49.1118 122.948 49.3523 121.6 48.0593Z" fill="white"/>
<path d="M126.451 55.6988C128.045 57.8825 130.625 58.1457 132.879 56.44L130.243 52.8266L129.369 53.464L131.165 55.9259C129.799 56.6181 128.377 56.3781 127.414 55.0577C126.255 53.469 126.744 51.6372 128.322 50.4857C130 49.2617 131.801 49.4995 132.829 50.9094C133.72 52.1304 133.587 53.4287 132.869 54.3631L133.797 55.6336C134.957 54.1177 135.173 52.0589 133.834 50.2221C132.32 48.1472 129.621 47.8041 127.517 49.3395C125.352 50.9185 124.953 53.6437 126.451 55.6988Z" fill="white"/>
<path d="M132.866 64.1963L130.931 60.4245L133.401 59.1568L135.128 62.5242L136.178 61.9855L134.451 58.6185L136.681 57.4743L138.577 61.1693L139.626 60.631L137.114 55.733L129.264 59.7602L131.816 64.7351L132.866 64.1963Z" fill="white"/>
<path d="M133.369 69.2452L140.552 66.7465L141.497 69.4623L142.646 69.0621L140.313 62.3542L139.164 62.7534L140.108 65.4693L132.925 67.969L133.369 69.2452Z" fill="white"/>
<path d="M134.634 74.0286L138.526 73.3147L139.333 77.7143L135.441 78.4282L135.685 79.7574L144.363 78.1664L144.119 76.8362L140.493 77.5015L139.686 73.102L143.312 72.4372L143.068 71.1075L134.39 72.6995L134.634 74.0286Z" fill="white"/>
<path d="M136.976 86.5021L136.845 82.2646L139.621 82.1789L139.738 85.9618L140.917 85.9259L140.8 82.1429L143.306 82.0655L143.434 86.2166L144.613 86.1806L144.444 80.6783L135.625 80.9497L135.797 86.5385L136.976 86.5021Z" fill="white"/>
<path d="M135.507 89.1201L138.803 89.4975L138.619 91.1091L135.072 92.9166L134.887 94.5283L138.652 92.5474C138.817 93.9145 139.69 94.8185 140.948 94.9625C142.693 95.1626 143.821 94.0674 144.051 92.053L144.426 88.7812L135.661 87.7773L135.507 89.1201ZM143.149 89.9952L142.938 91.8391C142.795 93.084 142.153 93.7281 141.103 93.6073C140.04 93.4861 139.572 92.7147 139.715 91.4698L139.926 89.6258L143.149 89.9952Z" fill="white"/>
<path d="M135.133 106.977C136.149 107.474 137.223 107.097 137.704 106.114C138.184 105.131 137.823 104.052 136.807 103.556C135.825 103.075 134.762 103.458 134.282 104.44C133.801 105.422 134.151 106.497 135.133 106.977Z" fill="white"/>
</g>
</g>
<g opacity="0.7" clip-path="url(#clip2_157_1361)">
<g clip-path="url(#clip3_157_1361)">
<path fill-rule="evenodd" clip-rule="evenodd" d="M72.9028 85.0517C72.9028 84.4444 73.3951 83.9522 74.0024 83.9522H93.339L88.2186 78.8317C87.7891 78.4023 87.7891 77.706 88.2186 77.2766C88.648 76.8472 89.3441 76.8472 89.7736 77.2766L96.7712 84.2742C97.2005 84.7036 97.2005 85.3998 96.7712 85.8292L89.7736 92.8268C89.3441 93.2563 88.648 93.2563 88.2186 92.8268C87.7891 92.3975 87.7891 91.7012 88.2186 91.2717L93.339 86.1513H74.0024C73.3951 86.1513 72.9028 85.659 72.9028 85.0517Z" fill="white"/>
</g>
</g>
<defs>
<clipPath id="clip0_157_1361">
<rect width="119.929" height="119.929" fill="white" transform="translate(0.42334 81.8965) rotate(-42.96)"/>
</clipPath>
<clipPath id="clip1_157_1361">
<rect width="119.929" height="118.526" fill="white" transform="translate(1.12939 81.9272) rotate(-42.96)"/>
</clipPath>
<clipPath id="clip2_157_1361">
<rect width="26.0637" height="28.0501" fill="white" transform="translate(72.0884 71.041)"/>
</clipPath>
<clipPath id="clip3_157_1361">
<rect width="26.0637" height="27.9254" fill="white" transform="translate(72.0884 71.0415)"/>
</clipPath>
</defs>
</svg>
